<?xml version="1.0" encoding="UTF-8"?>
<svg xmlns="http://www.w3.org/2000/svg" xmlns:xlink="http://www.w3.org/1999/xlink" width="760" height="430" viewBox="0 0 760 430">
<defs>
<g>
<g id="glyph-0-0-81961495">
<path d="M 8.6875 -2.796875 C 8.6875 -0.984375 7.296875 0.25 4.703125 0.25 C 2.296875 0.25 0.671875 -0.90625 0.671875 -3.3125 C 0.671875 -3.3125 1.90625 -3.3125 1.90625 -3.3125 C 1.90625 -1.859375 2.859375 -0.890625 4.78125 -0.890625 C 6.546875 -0.890625 7.390625 -1.546875 7.390625 -2.671875 C 7.390625 -3.46875 6.796875 -3.984375 5.515625 -4.328125 C 5.515625 -4.328125 2.984375 -5 2.984375 -5 C 1.640625 -5.34375 0.984375 -6.125 0.984375 -7.375 C 0.984375 -9.21875 2.359375 -10.453125 4.609375 -10.453125 C 6.953125 -10.453125 8.34375 -9.296875 8.34375 -7.296875 C 8.34375 -7.296875 7.109375 -7.296875 7.109375 -7.296875 C 7.109375 -8.625 6.1875 -9.359375 4.5625 -9.359375 C 3.1875 -9.359375 2.28125 -8.59375 2.28125 -7.5625 C 2.28125 -6.78125 2.734375 -6.375 3.96875 -6.046875 C 3.96875 -6.046875 6.53125 -5.359375 6.53125 -5.359375 C 7.90625 -4.984375 8.6875 -4.0625 8.6875 -2.796875 Z M 8.6875 -2.796875 "/>
</g>
<g id="glyph-0-1-81961495">
<path d="M 7.484375 -0.03125 C 7.109375 0.0625 6.9375 0.09375 6.6875 0.09375 C 6.125 0.09375 5.609375 -0.3125 5.484375 -0.875 C 4.84375 -0.1875 3.9375 0.203125 3 0.203125 C 1.515625 0.203125 0.59375 -0.578125 0.59375 -1.90625 C 0.59375 -2.796875 1.015625 -3.453125 1.875 -3.8125 C 2.328125 -3.984375 2.578125 -4.046875 4.234375 -4.25 C 5.15625 -4.375 5.453125 -4.578125 5.453125 -5.0625 C 5.453125 -5.0625 5.453125 -5.375 5.453125 -5.375 C 5.453125 -6.078125 4.859375 -6.46875 3.8125 -6.46875 C 2.71875 -6.46875 2.1875 -6.0625 2.09375 -5.171875 C 2.09375 -5.171875 0.90625 -5.171875 0.90625 -5.171875 C 0.984375 -6.859375 2.078125 -7.546875 3.84375 -7.546875 C 5.65625 -7.546875 6.609375 -6.84375 6.609375 -5.546875 C 6.609375 -5.546875 6.609375 -1.453125 6.609375 -1.453125 C 6.609375 -1.09375 6.828125 -0.875 7.234375 -0.875 C 7.3125 -0.875 7.359375 -0.875 7.484375 -0.90625 C 7.484375 -0.90625 7.484375 -0.03125 7.484375 -0.03125 Z M 5.453125 -2.53125 C 5.453125 -2.53125 5.453125 -3.625 5.453125 -3.625 C 5.046875 -3.4375 4.796875 -3.390625 3.5625 -3.21875 C 2.328125 -3.03125 1.8125 -2.703125 1.8125 -1.9375 C 1.8125 -1.140625 2.34375 -0.8125 3.25 -0.8125 C 4.375 -0.8125 5.453125 -1.484375 5.453125 -2.53125 Z M 5.453125 -2.53125 "/>
</g>
<g id="glyph-0-2-81961495">
<path d="M 10.640625 0 C 10.640625 0 9.484375 0 9.484375 0 C 9.484375 0 9.484375 -5.046875 9.484375 -5.046875 C 9.484375 -5.984375 8.984375 -6.53125 8.140625 -6.53125 C 7.1875 -6.53125 6.390625 -5.671875 6.390625 -4.609375 C 6.390625 -4.609375 6.390625 0 6.390625 0 C 6.390625 0 5.234375 0 5.234375 0 C 5.234375 0 5.234375 -5.046875 5.234375 -5.046875 C 5.234375 -5.984375 4.75 -6.53125 3.875 -6.53125 C 2.921875 -6.53125 2.15625 -5.671875 2.15625 -4.609375 C 2.15625 -4.609375 2.15625 0 2.15625 0 C 2.15625 0 1 0 1 0 C 1 0 1 -7.34375 1 -7.34375 C 1 -7.34375 2.0625 -7.34375 2.0625 -7.34375 C 2.0625 -7.34375 2.0625 -6.296875 2.0625 -6.296875 C 2.6875 -7.1875 3.328125 -7.546875 4.3125 -7.546875 C 5.265625 -7.546875 5.859375 -7.203125 6.28125 -6.421875 C 6.96875 -7.25 7.5625 -7.546875 8.546875 -7.546875 C 9.90625 -7.546875 10.640625 -6.8125 10.640625 -5.5 C 10.640625 -5.5 10.640625 0 10.640625 0 Z M 10.640625 0 "/>
</g>
<g id="glyph-0-3-81961495">
<path d="M 7.328125 -3.59375 C 7.328125 -1.265625 6.078125 0.203125 4.1875 0.203125 C 3.234375 0.203125 2.546875 -0.125 1.9375 -0.875 C 1.9375 -0.875 1.9375 3.046875 1.9375 3.046875 C 1.9375 3.046875 0.765625 3.046875 0.765625 3.046875 C 0.765625 3.046875 0.765625 -7.34375 0.765625 -7.34375 C 0.765625 -7.34375 1.828125 -7.34375 1.828125 -7.34375 C 1.828125 -7.34375 1.828125 -6.234375 1.828125 -6.234375 C 2.375 -7.09375 3.171875 -7.546875 4.171875 -7.546875 C 6.125 -7.546875 7.328125 -6.0625 7.328125 -3.59375 Z M 6.109375 -3.625 C 6.109375 -5.375 5.265625 -6.453125 3.96875 -6.453125 C 2.75 -6.453125 1.9375 -5.328125 1.9375 -3.609375 C 1.9375 -1.890625 2.75 -0.875 3.96875 -0.875 C 5.25 -0.875 6.109375 -1.953125 6.109375 -3.625 Z M 6.109375 -3.625 "/>
</g>
<g id="glyph-0-4-81961495">
<path d="M 2.109375 0 C 2.109375 0 0.953125 0 0.953125 0 C 0.953125 0 0.953125 -10.203125 0.953125 -10.203125 C 0.953125 -10.203125 2.109375 -10.203125 2.109375 -10.203125 C 2.109375 -10.203125 2.109375 0 2.109375 0 Z M 2.109375 0 "/>
</g>
<g id="glyph-0-5-81961495">
<path d="M 2.140625 0 C 2.140625 0 0.984375 0 0.984375 0 C 0.984375 0 0.984375 -7.34375 0.984375 -7.34375 C 0.984375 -7.34375 2.140625 -7.34375 2.140625 -7.34375 C 2.140625 -7.34375 2.140625 0 2.140625 0 Z M 2.296875 -8.4375 C 2.296875 -8.4375 0.84375 -8.4375 0.84375 -8.4375 C 0.84375 -8.4375 0.84375 -9.890625 0.84375 -9.890625 C 0.84375 -9.890625 2.296875 -9.890625 2.296875 -9.890625 C 2.296875 -9.890625 2.296875 -8.4375 2.296875 -8.4375 Z M 2.296875 -8.4375 "/>
</g>
<g id="glyph-0-6-81961495">
<path d="M 6.8125 0 C 6.8125 0 5.65625 0 5.65625 0 C 5.65625 0 5.65625 -5.078125 5.65625 -5.078125 C 5.65625 -5.96875 5.0625 -6.53125 4.140625 -6.53125 C 2.953125 -6.53125 2.140625 -5.546875 2.140625 -4.046875 C 2.140625 -4.046875 2.140625 0 2.140625 0 C 2.140625 0 0.984375 0 0.984375 0 C 0.984375 0 0.984375 -7.34375 0.984375 -7.34375 C 0.984375 -7.34375 2.0625 -7.34375 2.0625 -7.34375 C 2.0625 -7.34375 2.0625 -6.109375 2.0625 -6.109375 C 2.703125 -7.125 3.40625 -7.546875 4.5 -7.546875 C 5.90625 -7.546875 6.8125 -6.765625 6.8125 -5.546875 C 6.8125 -5.546875 6.8125 0 6.8125 0 Z M 6.8125 0 "/>
</g>
<g id="glyph-0-7-81961495">
<path d="M 6.84375 -1.203125 C 6.84375 2.03125 5.859375 3.046875 3.5625 3.046875 C 1.84375 3.046875 0.765625 2.21875 0.640625 0.84375 C 0.640625 0.84375 1.828125 0.84375 1.828125 0.84375 C 1.96875 1.734375 2.6875 2.078125 3.609375 2.078125 C 4.96875 2.078125 5.765625 1.328125 5.765625 -0.609375 C 5.765625 -0.609375 5.765625 -1.109375 5.765625 -1.109375 C 5 -0.1875 4.359375 0.203125 3.4375 0.203125 C 1.703125 0.203125 0.40625 -1.28125 0.40625 -3.59375 C 0.40625 -5.984375 1.671875 -7.546875 3.53125 -7.546875 C 4.46875 -7.546875 5.1875 -7.140625 5.765625 -6.265625 C 5.765625 -6.265625 5.765625 -7.34375 5.765625 -7.34375 C 5.765625 -7.34375 6.84375 -7.34375 6.84375 -7.34375 C 6.84375 -7.34375 6.84375 -1.203125 6.84375 -1.203125 Z M 5.65625 -3.625 C 5.65625 -5.40625 4.90625 -6.46875 3.65625 -6.46875 C 2.40625 -6.46875 1.625 -5.4375 1.625 -3.671875 C 1.625 -1.890625 2.390625 -0.875 3.671875 -0.875 C 4.90625 -0.875 5.65625 -1.875 5.65625 -3.625 Z M 5.65625 -3.625 "/>
</g>
<g id="glyph-0-8-81961495">
</g>
<g id="glyph-0-9-81961495">
<path d="M 6.9375 0 C 6.9375 0 5.890625 0 5.890625 0 C 5.890625 0 5.890625 -1.078125 5.890625 -1.078125 C 5.265625 -0.171875 4.5625 0.203125 3.5625 0.203125 C 1.578125 0.203125 0.359375 -1.265625 0.359375 -3.734375 C 0.359375 -6.078125 1.609375 -7.546875 3.515625 -7.546875 C 4.5 -7.546875 5.28125 -7.15625 5.765625 -6.40625 C 5.765625 -6.40625 5.765625 -10.203125 5.765625 -10.203125 C 5.765625 -10.203125 6.9375 -10.203125 6.9375 -10.203125 C 6.9375 -10.203125 6.9375 0 6.9375 0 Z M 5.765625 -3.640625 C 5.765625 -5.328125 4.96875 -6.453125 3.703125 -6.453125 C 2.4375 -6.453125 1.578125 -5.375 1.578125 -3.671875 C 1.578125 -1.953125 2.4375 -0.875 3.71875 -0.875 C 4.953125 -0.875 5.765625 -1.953125 5.765625 -3.640625 Z M 5.765625 -3.640625 "/>
</g>
<g id="glyph-0-10-81961495">
<path d="M 6.6875 -7.34375 C 6.6875 -7.34375 3.4375 1.546875 3.4375 1.546875 C 3.03125 2.59375 2.359375 3.046875 1.546875 3.046875 C 1.234375 3.046875 1 3 0.75 2.875 C 0.75 2.875 0.75 1.8125 0.75 1.8125 C 1.015625 1.875 1.203125 1.90625 1.375 1.90625 C 1.875 1.90625 2.109375 1.703125 2.3125 1.1875 C 2.3125 1.1875 2.765625 0.03125 2.765625 0.03125 C 2.765625 0.03125 0.28125 -7.34375 0.28125 -7.34375 C 0.28125 -7.34375 1.53125 -7.34375 1.53125 -7.34375 C 1.53125 -7.34375 3.40625 -1.625 3.40625 -1.625 C 3.40625 -1.625 5.4375 -7.34375 5.4375 -7.34375 C 5.4375 -7.34375 6.6875 -7.34375 6.6875 -7.34375 Z M 6.6875 -7.34375 "/>
</g>
<g id="glyph-0-11-81961495">
<path d="M 7.09375 -4.78125 C 7.09375 -1.515625 5.953125 0.203125 3.84375 0.203125 C 1.71875 0.203125 0.609375 -1.515625 0.609375 -4.859375 C 0.609375 -8.1875 1.703125 -9.921875 3.84375 -9.921875 C 6 -9.921875 7.09375 -8.21875 7.09375 -4.78125 Z M 5.84375 -4.890625 C 5.84375 -7.546875 5.1875 -8.828125 3.84375 -8.828125 C 2.515625 -8.828125 1.859375 -7.5625 1.859375 -4.84375 C 1.859375 -2.125 2.515625 -0.8125 3.828125 -0.8125 C 5.1875 -0.8125 5.84375 -2.078125 5.84375 -4.890625 Z M 5.84375 -4.890625 "/>
</g>
<g id="glyph-0-12-81961495">
<path d="M 7.1875 -3.296875 C 7.1875 -1.1875 5.78125 0.203125 3.78125 0.203125 C 2.015625 0.203125 0.890625 -0.578125 0.484375 -2.546875 C 0.484375 -2.546875 1.71875 -2.546875 1.71875 -2.546875 C 2.015625 -1.421875 2.671875 -0.875 3.75 -0.875 C 5.09375 -0.875 5.921875 -1.6875 5.921875 -3.125 C 5.921875 -4.59375 5.078125 -5.453125 3.75 -5.453125 C 2.984375 -5.453125 2.5 -5.203125 1.9375 -4.515625 C 1.9375 -4.515625 0.796875 -4.515625 0.796875 -4.515625 C 0.796875 -4.515625 1.546875 -9.71875 1.546875 -9.71875 C 1.546875 -9.71875 6.65625 -9.71875 6.65625 -9.71875 C 6.65625 -9.71875 6.65625 -8.5 6.65625 -8.5 C 6.65625 -8.5 2.53125 -8.5 2.53125 -8.5 C 2.53125 -8.5 2.140625 -5.9375 2.140625 -5.9375 C 2.71875 -6.359375 3.28125 -6.53125 3.96875 -6.53125 C 5.875 -6.53125 7.1875 -5.25 7.1875 -3.296875 Z M 7.1875 -3.296875 "/>
</g>
<g id="glyph-0-13-81961495">
<path d="M 4.859375 0 C 4.859375 0 3.625 0 3.625 0 C 3.625 0 3.625 -7.0625 3.625 -7.0625 C 3.625 -7.0625 1.421875 -7.0625 1.421875 -7.0625 C 1.421875 -7.0625 1.421875 -7.953125 1.421875 -7.953125 C 3.328125 -8.1875 3.609375 -8.40625 4.046875 -9.921875 C 4.046875 -9.921875 4.859375 -9.921875 4.859375 -9.921875 C 4.859375 -9.921875 4.859375 0 4.859375 0 Z M 4.859375 0 "/>
</g>
<g id="glyph-0-14-81961495">
<path d="M 7.15625 -7.015625 C 7.15625 -5.796875 6.4375 -4.765625 5.046875 -4.015625 C 5.046875 -4.015625 3.65625 -3.265625 3.65625 -3.265625 C 2.4375 -2.546875 1.984375 -2.03125 1.859375 -1.21875 C 1.859375 -1.21875 7.078125 -1.21875 7.078125 -1.21875 C 7.078125 -1.21875 7.078125 0 7.078125 0 C 7.078125 0 0.46875 0 0.46875 0 C 0.59375 -2.1875 1.1875 -3.125 3.265625 -4.296875 C 3.265625 -4.296875 4.546875 -5.03125 4.546875 -5.03125 C 5.4375 -5.53125 5.890625 -6.203125 5.890625 -6.984375 C 5.890625 -8.046875 5.046875 -8.84375 3.9375 -8.84375 C 2.71875 -8.84375 2.03125 -8.140625 1.9375 -6.484375 C 1.9375 -6.484375 0.703125 -6.484375 0.703125 -6.484375 C 0.765625 -8.890625 1.953125 -9.921875 3.96875 -9.921875 C 5.859375 -9.921875 7.15625 -8.6875 7.15625 -7.015625 Z M 7.15625 -7.015625 "/>
</g>
<g id="glyph-0-15-81961495">
<path d="M 7.078125 -2.890625 C 7.078125 -1.015625 5.765625 0.203125 3.71875 0.203125 C 1.6875 0.203125 0.609375 -0.78125 0.453125 -3 C 0.453125 -3 1.6875 -3 1.6875 -3 C 1.765625 -1.546875 2.421875 -0.875 3.765625 -0.875 C 5.046875 -0.875 5.828125 -1.625 5.828125 -2.875 C 5.828125 -3.96875 5.125 -4.625 3.765625 -4.625 C 3.765625 -4.625 3.09375 -4.625 3.09375 -4.625 C 3.09375 -4.625 3.09375 -5.65625 3.09375 -5.65625 C 5.0625 -5.65625 5.53125 -6.09375 5.53125 -7.15625 C 5.53125 -8.203125 4.875 -8.84375 3.78125 -8.84375 C 2.515625 -8.84375 1.921875 -8.1875 1.890625 -6.71875 C 1.890625 -6.71875 0.65625 -6.71875 0.65625 -6.71875 C 0.703125 -8.828125 1.765625 -9.921875 3.765625 -9.921875 C 5.65625 -9.921875 6.796875 -8.90625 6.796875 -7.203125 C 6.796875 -6.203125 6.328125 -5.5625 5.40625 -5.1875 C 6.59375 -4.78125 7.078125 -4.09375 7.078125 -2.890625 Z M 7.078125 -2.890625 "/>
</g>
<g id="glyph-0-16-81961495">
<path d="M 7.28125 -2.375 C 7.28125 -2.375 5.8125 -2.375 5.8125 -2.375 C 5.8125 -2.375 5.8125 0 5.8125 0 C 5.8125 0 4.578125 0 4.578125 0 C 4.578125 0 4.578125 -2.375 4.578125 -2.375 C 4.578125 -2.375 0.390625 -2.375 0.390625 -2.375 C 0.390625 -2.375 0.390625 -3.6875 0.390625 -3.6875 C 0.390625 -3.6875 4.90625 -9.921875 4.90625 -9.921875 C 4.90625 -9.921875 5.8125 -9.921875 5.8125 -9.921875 C 5.8125 -9.921875 5.8125 -3.484375 5.8125 -3.484375 C 5.8125 -3.484375 7.28125 -3.484375 7.28125 -3.484375 C 7.28125 -3.484375 7.28125 -2.375 7.28125 -2.375 Z M 4.578125 -3.484375 C 4.578125 -3.484375 4.578125 -7.828125 4.578125 -7.828125 C 4.578125 -7.828125 1.46875 -3.484375 1.46875 -3.484375 C 1.46875 -3.484375 4.578125 -3.484375 4.578125 -3.484375 Z M 4.578125 -3.484375 "/>
</g>
<g id="glyph-0-17-81961495">
<path d="M 7.1875 -3.078125 C 7.1875 -1.140625 5.828125 0.203125 3.9375 0.203125 C 1.671875 0.203125 0.609375 -1.421875 0.609375 -4.515625 C 0.609375 -7.984375 1.84375 -9.921875 4.15625 -9.921875 C 5.671875 -9.921875 6.734375 -8.953125 6.96875 -7.34375 C 6.96875 -7.34375 5.734375 -7.34375 5.734375 -7.34375 C 5.546875 -8.28125 4.9375 -8.828125 4.078125 -8.828125 C 2.65625 -8.828125 1.875 -7.484375 1.859375 -5.0625 C 2.390625 -5.796875 3.15625 -6.171875 4.140625 -6.171875 C 5.921875 -6.171875 7.1875 -4.921875 7.1875 -3.078125 Z M 5.921875 -2.984375 C 5.921875 -4.3125 5.1875 -5.078125 3.984375 -5.078125 C 2.765625 -5.078125 1.9375 -4.28125 1.9375 -3.046875 C 1.9375 -1.78125 2.796875 -0.875 3.953125 -0.875 C 5.078125 -0.875 5.921875 -1.734375 5.921875 -2.984375 Z M 5.921875 -2.984375 "/>
</g>
<g id="glyph-0-18-81961495">
<path d="M 7.28125 -8.6875 C 5.1875 -6.203125 3.796875 -3.203125 3.25 0 C 3.25 0 1.9375 0 1.9375 0 C 2.625 -3.109375 4.03125 -6 6 -8.5 C 6 -8.5 0.640625 -8.5 0.640625 -8.5 C 0.640625 -8.5 0.640625 -9.71875 0.640625 -9.71875 C 0.640625 -9.71875 7.28125 -9.71875 7.28125 -9.71875 C 7.28125 -9.71875 7.28125 -8.6875 7.28125 -8.6875 Z M 7.28125 -8.6875 "/>
</g>
<g id="glyph-0-19-81961495">
<path d="M 7.1875 -2.796875 C 7.1875 -1 5.8125 0.203125 3.84375 0.203125 C 1.890625 0.203125 0.515625 -1 0.515625 -2.8125 C 0.515625 -3.90625 1.078125 -4.671875 2.21875 -5.21875 C 1.203125 -5.859375 0.875 -6.359375 0.875 -7.28125 C 0.875 -8.828125 2.09375 -9.921875 3.84375 -9.921875 C 5.609375 -9.921875 6.828125 -8.828125 6.828125 -7.28125 C 6.828125 -6.34375 6.5 -5.84375 5.46875 -5.21875 C 6.625 -4.671875 7.1875 -3.90625 7.1875 -2.796875 Z M 5.578125 -7.25 C 5.578125 -8.21875 4.90625 -8.828125 3.84375 -8.828125 C 2.8125 -8.828125 2.125 -8.21875 2.125 -7.265625 C 2.125 -6.328125 2.8125 -5.71875 3.84375 -5.71875 C 4.890625 -5.71875 5.578125 -6.328125 5.578125 -7.25 Z M 5.921875 -2.78125 C 5.921875 -3.953125 5.078125 -4.671875 3.84375 -4.671875 C 2.625 -4.671875 1.78125 -3.953125 1.78125 -2.78125 C 1.78125 -1.625 2.625 -0.875 3.828125 -0.875 C 5.078125 -0.875 5.921875 -1.609375 5.921875 -2.78125 Z M 5.921875 -2.78125 "/>
</g>
<g id="glyph-0-20-81961495">
<path d="M 9.484375 -3.71875 C 9.171875 -1.0625 7.765625 0.25 5.28125 0.25 C 2.28125 0.25 0.671875 -2 0.671875 -4.984375 C 0.671875 -7.96875 2.234375 -10.453125 5.328125 -10.453125 C 7.578125 -10.453125 8.859375 -9.28125 9.265625 -7.046875 C 9.265625 -7.046875 7.9375 -7.046875 7.9375 -7.046875 C 7.609375 -8.59375 6.78125 -9.3125 5.1875 -9.3125 C 3.203125 -9.3125 1.96875 -7.609375 1.96875 -5 C 1.96875 -2.453125 3.265625 -0.890625 5.296875 -0.890625 C 7.015625 -0.890625 7.828125 -1.796875 8.140625 -3.71875 C 8.140625 -3.71875 9.484375 -3.71875 9.484375 -3.71875 Z M 9.484375 -3.71875 "/>
</g>
<g id="glyph-0-21-81961495">
<path d="M 7.140625 -3.609375 C 7.140625 -1.203125 5.875 0.203125 3.828125 0.203125 C 1.734375 0.203125 0.5 -1.203125 0.5 -3.671875 C 0.5 -6.125 1.75 -7.546875 3.8125 -7.546875 C 5.921875 -7.546875 7.140625 -6.140625 7.140625 -3.609375 Z M 5.921875 -3.625 C 5.921875 -5.453125 5.140625 -6.46875 3.828125 -6.46875 C 2.515625 -6.46875 1.71875 -5.4375 1.71875 -3.671875 C 1.71875 -1.890625 2.515625 -0.875 3.828125 -0.875 C 5.109375 -0.875 5.921875 -1.90625 5.921875 -3.625 Z M 5.921875 -3.625 "/>
</g>
<g id="glyph-0-22-81961495">
<path d="M 4.5 -6.3125 C 2.6875 -6.28125 2.140625 -5.453125 2.140625 -3.8125 C 2.140625 -3.8125 2.140625 0 2.140625 0 C 2.140625 0 0.984375 0 0.984375 0 C 0.984375 0 0.984375 -7.34375 0.984375 -7.34375 C 0.984375 -7.34375 2.046875 -7.34375 2.046875 -7.34375 C 2.046875 -7.34375 2.046875 -6 2.046875 -6 C 2.71875 -7.09375 3.296875 -7.546875 4.046875 -7.546875 C 4.203125 -7.546875 4.296875 -7.53125 4.5 -7.5 C 4.5 -7.5 4.5 -6.3125 4.5 -6.3125 Z M 4.5 -6.3125 "/>
</g>
<g id="glyph-0-23-81961495">
<path d="M 8.296875 -9.0625 C 8.296875 -9.0625 4.953125 -9.0625 4.953125 -9.0625 C 4.953125 -9.0625 4.953125 0 4.953125 0 C 4.953125 0 3.65625 0 3.65625 0 C 3.65625 0 3.65625 -9.0625 3.65625 -9.0625 C 3.65625 -9.0625 0.296875 -9.0625 0.296875 -9.0625 C 0.296875 -9.0625 0.296875 -10.203125 0.296875 -10.203125 C 0.296875 -10.203125 8.296875 -10.203125 8.296875 -10.203125 C 8.296875 -10.203125 8.296875 -9.0625 8.296875 -9.0625 Z M 8.296875 -9.0625 "/>
</g>
<g id="glyph-0-24-81961495">
<path d="M 7.1875 -3.328125 C 7.1875 -3.328125 1.78125 -3.328125 1.78125 -3.328125 C 1.8125 -1.65625 2.71875 -0.875 3.9375 -0.875 C 4.875 -0.875 5.53125 -1.265625 5.859375 -2.21875 C 5.859375 -2.21875 7.03125 -2.21875 7.03125 -2.21875 C 6.734375 -0.734375 5.578125 0.203125 3.890625 0.203125 C 1.828125 0.203125 0.5625 -1.21875 0.5625 -3.625 C 0.5625 -6.03125 1.875 -7.546875 3.921875 -7.546875 C 5.296875 -7.546875 6.40625 -6.8125 6.890625 -5.609375 C 7.09375 -5.0625 7.1875 -4.390625 7.1875 -3.328125 Z M 5.9375 -4.375 C 5.9375 -5.515625 5.046875 -6.46875 3.90625 -6.46875 C 2.734375 -6.46875 1.90625 -5.59375 1.8125 -4.28125 C 1.8125 -4.28125 5.921875 -4.28125 5.921875 -4.28125 C 5.9375 -4.3125 5.9375 -4.375 5.9375 -4.375 Z M 5.9375 -4.375 "/>
</g>
<g id="glyph-0-25-81961495">
<path d="M 3.5625 0 C 3.15625 0.0625 2.890625 0.09375 2.609375 0.09375 C 1.6875 0.09375 1.1875 -0.328125 1.1875 -1.0625 C 1.1875 -1.0625 1.1875 -6.390625 1.1875 -6.390625 C 1.1875 -6.390625 0.203125 -6.390625 0.203125 -6.390625 C 0.203125 -6.390625 0.203125 -7.34375 0.203125 -7.34375 C 0.203125 -7.34375 1.1875 -7.34375 1.1875 -7.34375 C 1.1875 -7.34375 1.1875 -9.359375 1.1875 -9.359375 C 1.1875 -9.359375 2.359375 -9.359375 2.359375 -9.359375 C 2.359375 -9.359375 2.359375 -7.34375 2.359375 -7.34375 C 2.359375 -7.34375 3.5625 -7.34375 3.5625 -7.34375 C 3.5625 -7.34375 3.5625 -6.390625 3.5625 -6.390625 C 3.5625 -6.390625 2.359375 -6.390625 2.359375 -6.390625 C 2.359375 -6.390625 2.359375 -1.578125 2.359375 -1.578125 C 2.359375 -1.0625 2.484375 -0.921875 3 -0.921875 C 3.21875 -0.921875 3.40625 -0.9375 3.5625 -0.984375 C 3.5625 -0.984375 3.5625 0 3.5625 0 Z M 3.5625 0 "/>
</g>
<g id="glyph-1-0-81961495">
<path d="M -7.203125 -8.640625 C -5.515625 -8.640625 -4.328125 -7.46875 -4.328125 -5.78125 C -4.328125 -5.78125 -4.328125 -2.578125 -4.328125 -2.578125 C -4.328125 -2.578125 0 -2.578125 0 -2.578125 C 0 -2.578125 0 -1.28125 0 -1.28125 C 0 -1.28125 -10.203125 -1.28125 -10.203125 -1.28125 C -10.203125 -1.28125 -10.203125 -5.484375 -10.203125 -5.484375 C -10.203125 -7.5 -9.125 -8.640625 -7.203125 -8.640625 Z M -7.265625 -7.28125 C -8.390625 -7.28125 -9.0625 -6.53125 -9.0625 -5.296875 C -9.0625 -5.296875 -9.0625 -2.578125 -9.0625 -2.578125 C -9.0625 -2.578125 -5.46875 -2.578125 -5.46875 -2.578125 C -5.46875 -2.578125 -5.46875 -5.296875 -5.46875 -5.296875 C -5.46875 -6.53125 -6.140625 -7.28125 -7.265625 -7.28125 Z M -7.265625 -7.28125 "/>
</g>
<g id="glyph-2-0-81961495">
<path d="M -3.609375 -7.140625 C -1.203125 -7.140625 0.203125 -5.875 0.203125 -3.828125 C 0.203125 -1.734375 -1.203125 -0.5 -3.671875 -0.5 C -6.125 -0.5 -7.546875 -1.75 -7.546875 -3.8125 C -7.546875 -5.921875 -6.140625 -7.140625 -3.609375 -7.140625 Z M -3.625 -5.921875 C -5.453125 -5.921875 -6.46875 -5.140625 -6.46875 -3.828125 C -6.46875 -2.515625 -5.4375 -1.71875 -3.671875 -1.71875 C -1.890625 -1.71875 -0.875 -2.515625 -0.875 -3.828125 C -0.875 -5.109375 -1.90625 -5.921875 -3.625 -5.921875 Z M -3.625 -5.921875 "/>
</g>
<g id="glyph-3-0-81961495">
<path d="M -3.59375 -7.328125 C -1.265625 -7.328125 0.203125 -6.078125 0.203125 -4.1875 C 0.203125 -3.234375 -0.125 -2.546875 -0.875 -1.9375 C -0.875 -1.9375 3.046875 -1.9375 3.046875 -1.9375 C 3.046875 -1.9375 3.046875 -0.765625 3.046875 -0.765625 C 3.046875 -0.765625 -7.34375 -0.765625 -7.34375 -0.765625 C -7.34375 -0.765625 -7.34375 -1.828125 -7.34375 -1.828125 C -7.34375 -1.828125 -6.234375 -1.828125 -6.234375 -1.828125 C -7.09375 -2.375 -7.546875 -3.171875 -7.546875 -4.171875 C -7.546875 -6.125 -6.0625 -7.328125 -3.59375 -7.328125 Z M -3.625 -6.109375 C -5.375 -6.109375 -6.453125 -5.265625 -6.453125 -3.96875 C -6.453125 -2.75 -5.328125 -1.9375 -3.609375 -1.9375 C -1.890625 -1.9375 -0.875 -2.75 -0.875 -3.96875 C -0.875 -5.25 -1.953125 -6.109375 -3.625 -6.109375 Z M -3.625 -6.109375 "/>
</g>
<g id="glyph-3-1-81961495">
<path d="M 0 -6.75 C 0 -6.75 0 -5.703125 0 -5.703125 C 0 -5.703125 -1.140625 -5.703125 -1.140625 -5.703125 C -0.171875 -5.015625 0.203125 -4.328125 0.203125 -3.25 C 0.203125 -1.8125 -0.578125 -0.90625 -1.796875 -0.90625 C -1.796875 -0.90625 -7.34375 -0.90625 -7.34375 -0.90625 C -7.34375 -0.90625 -7.34375 -2.078125 -7.34375 -2.078125 C -7.34375 -2.078125 -2.25 -2.078125 -2.25 -2.078125 C -1.375 -2.078125 -0.8125 -2.65625 -0.8125 -3.578125 C -0.8125 -4.796875 -1.796875 -5.59375 -3.296875 -5.59375 C -3.296875 -5.59375 -7.34375 -5.59375 -7.34375 -5.59375 C -7.34375 -5.59375 -7.34375 -6.75 -7.34375 -6.75 C -7.34375 -6.75 0 -6.75 0 -6.75 Z M 0 -6.75 "/>
</g>
<g id="glyph-4-0-81961495">
<path d="M 0 -2.109375 C 0 -2.109375 0 -0.953125 0 -0.953125 C 0 -0.953125 -10.203125 -0.953125 -10.203125 -0.953125 C -10.203125 -0.953125 -10.203125 -2.109375 -10.203125 -2.109375 C -10.203125 -2.109375 0 -2.109375 0 -2.109375 Z M 0 -2.109375 "/>
</g>
<g id="glyph-5-0-81961495">
<path d="M -0.03125 -7.484375 C 0.0625 -7.109375 0.09375 -6.9375 0.09375 -6.6875 C 0.09375 -6.125 -0.3125 -5.609375 -0.875 -5.484375 C -0.1875 -4.84375 0.203125 -3.9375 0.203125 -3 C 0.203125 -1.515625 -0.578125 -0.59375 -1.90625 -0.59375 C -2.796875 -0.59375 -3.453125 -1.015625 -3.8125 -1.875 C -3.984375 -2.328125 -4.046875 -2.578125 -4.25 -4.234375 C -4.375 -5.15625 -4.578125 -5.453125 -5.0625 -5.453125 C -5.0625 -5.453125 -5.375 -5.453125 -5.375 -5.453125 C -6.078125 -5.453125 -6.46875 -4.859375 -6.46875 -3.8125 C -6.46875 -2.71875 -6.0625 -2.1875 -5.171875 -2.09375 C -5.171875 -2.09375 -5.171875 -0.90625 -5.171875 -0.90625 C -6.859375 -0.984375 -7.546875 -2.078125 -7.546875 -3.84375 C -7.546875 -5.65625 -6.84375 -6.609375 -5.546875 -6.609375 C -5.546875 -6.609375 -1.453125 -6.609375 -1.453125 -6.609375 C -1.09375 -6.609375 -0.875 -6.828125 -0.875 -7.234375 C -0.875 -7.3125 -0.875 -7.359375 -0.90625 -7.484375 C -0.90625 -7.484375 -0.03125 -7.484375 -0.03125 -7.484375 Z M -2.53125 -5.453125 C -2.53125 -5.453125 -3.625 -5.453125 -3.625 -5.453125 C -3.4375 -5.046875 -3.390625 -4.796875 -3.21875 -3.5625 C -3.03125 -2.328125 -2.703125 -1.8125 -1.9375 -1.8125 C -1.140625 -1.8125 -0.8125 -2.34375 -0.8125 -3.25 C -0.8125 -4.375 -1.484375 -5.453125 -2.53125 -5.453125 Z M -2.53125 -5.453125 "/>
</g>
<g id="glyph-5-1-81961495">
<path d="M 0 -6.8125 C 0 -6.8125 0 -5.65625 0 -5.65625 C 0 -5.65625 -5.078125 -5.65625 -5.078125 -5.65625 C -5.96875 -5.65625 -6.53125 -5.0625 -6.53125 -4.140625 C -6.53125 -2.953125 -5.546875 -2.140625 -4.046875 -2.140625 C -4.046875 -2.140625 0 -2.140625 0 -2.140625 C 0 -2.140625 0 -0.984375 0 -0.984375 C 0 -0.984375 -7.34375 -0.984375 -7.34375 -0.984375 C -7.34375 -0.984375 -7.34375 -2.0625 -7.34375 -2.0625 C -7.34375 -2.0625 -6.109375 -2.0625 -6.109375 -2.0625 C -7.125 -2.703125 -7.546875 -3.40625 -7.546875 -4.5 C -7.546875 -5.90625 -6.765625 -6.8125 -5.546875 -6.8125 C -5.546875 -6.8125 0 -6.8125 0 -6.8125 Z M 0 -6.8125 "/>
</g>
<g id="glyph-5-2-81961495">
</g>
<g id="glyph-5-3-81961495">
<path d="M 2.96875 -4.078125 C 2.96875 -4.078125 2.96875 -3.296875 2.96875 -3.296875 C 1.140625 -1.90625 -1.40625 -1.015625 -3.625 -1.015625 C -5.828125 -1.015625 -8.375 -1.90625 -10.203125 -3.296875 C -10.203125 -3.296875 -10.203125 -4.078125 -10.203125 -4.078125 C -8.21875 -2.84375 -5.859375 -2.15625 -3.625 -2.15625 C -1.390625 -2.15625 0.96875 -2.84375 2.96875 -4.078125 Z M 2.96875 -4.078125 "/>
</g>
<g id="glyph-5-4-81961495">
<path d="M 0 -6.9375 C 0 -6.9375 0 -5.890625 0 -5.890625 C 0 -5.890625 -1.078125 -5.890625 -1.078125 -5.890625 C -0.171875 -5.265625 0.203125 -4.5625 0.203125 -3.5625 C 0.203125 -1.578125 -1.265625 -0.359375 -3.734375 -0.359375 C -6.078125 -0.359375 -7.546875 -1.609375 -7.546875 -3.515625 C -7.546875 -4.5 -7.15625 -5.28125 -6.40625 -5.765625 C -6.40625 -5.765625 -10.203125 -5.765625 -10.203125 -5.765625 C -10.203125 -5.765625 -10.203125 -6.9375 -10.203125 -6.9375 C -10.203125 -6.9375 0 -6.9375 0 -6.9375 Z M -3.640625 -5.765625 C -5.328125 -5.765625 -6.453125 -4.96875 -6.453125 -3.703125 C -6.453125 -2.4375 -5.375 -1.578125 -3.671875 -1.578125 C -1.953125 -1.578125 -0.875 -2.4375 -0.875 -3.71875 C -0.875 -4.953125 -1.953125 -5.765625 -3.640625 -5.765625 Z M -3.640625 -5.765625 "/>
</g>
<g id="glyph-5-5-81961495">
<path d="M 0 -2.140625 C 0 -2.140625 0 -0.984375 0 -0.984375 C 0 -0.984375 -7.34375 -0.984375 -7.34375 -0.984375 C -7.34375 -0.984375 -7.34375 -2.140625 -7.34375 -2.140625 C -7.34375 -2.140625 0 -2.140625 0 -2.140625 Z M -8.4375 -2.296875 C -8.4375 -2.296875 -8.4375 -0.84375 -8.4375 -0.84375 C -8.4375 -0.84375 -9.890625 -0.84375 -9.890625 -0.84375 C -9.890625 -0.84375 -9.890625 -2.296875 -9.890625 -2.296875 C -9.890625 -2.296875 -8.4375 -2.296875 -8.4375 -2.296875 Z M -8.4375 -2.296875 "/>
</g>
<g id="glyph-5-6-81961495">
<path d="M -2.0625 -6.421875 C -0.640625 -6.421875 0.203125 -5.25 0.203125 -3.40625 C 0.203125 -1.484375 -0.546875 -0.53125 -2.234375 -0.46875 C -2.234375 -0.46875 -2.234375 -1.703125 -2.234375 -1.703125 C -1.125 -1.859375 -0.875 -2.453125 -0.875 -3.5 C -0.875 -4.515625 -1.28125 -5.203125 -1.953125 -5.203125 C -2.484375 -5.203125 -2.734375 -4.890625 -2.921875 -4.078125 C -2.921875 -4.078125 -3.1875 -2.984375 -3.1875 -2.984375 C -3.609375 -1.25 -4.15625 -0.65625 -5.3125 -0.65625 C -6.65625 -0.65625 -7.546875 -1.765625 -7.546875 -3.46875 C -7.546875 -5.171875 -6.734375 -6.125 -5.296875 -6.125 C -5.296875 -6.125 -5.296875 -4.90625 -5.296875 -4.90625 C -6.0625 -4.875 -6.46875 -4.375 -6.46875 -3.4375 C -6.46875 -2.484375 -6.03125 -1.875 -5.359375 -1.875 C -4.84375 -1.875 -4.53125 -2.28125 -4.3125 -3.234375 C -4.3125 -3.234375 -4.046875 -4.359375 -4.046875 -4.359375 C -3.703125 -5.8125 -3.15625 -6.421875 -2.0625 -6.421875 Z M -2.0625 -6.421875 "/>
</g>
<g id="glyph-5-7-81961495">
<path d="M -3.609375 -3.578125 C -1.40625 -3.578125 1.140625 -2.703125 2.96875 -1.296875 C 2.96875 -1.296875 2.96875 -0.53125 2.96875 -0.53125 C 0.984375 -1.765625 -1.390625 -2.453125 -3.609375 -2.453125 C -5.859375 -2.453125 -8.203125 -1.765625 -10.203125 -0.53125 C -10.203125 -0.53125 -10.203125 -1.296875 -10.203125 -1.296875 C -8.375 -2.703125 -5.828125 -3.578125 -3.609375 -3.578125 Z M -3.609375 -3.578125 "/>
</g>
<g id="glyph-6-0-81961495">
<path d="M 0 -3.5625 C 0.0625 -3.15625 0.09375 -2.890625 0.09375 -2.609375 C 0.09375 -1.6875 -0.328125 -1.1875 -1.0625 -1.1875 C -1.0625 -1.1875 -6.390625 -1.1875 -6.390625 -1.1875 C -6.390625 -1.1875 -6.390625 -0.203125 -6.390625 -0.203125 C -6.390625 -0.203125 -7.34375 -0.203125 -7.34375 -0.203125 C -7.34375 -0.203125 -7.34375 -1.1875 -7.34375 -1.1875 C -7.34375 -1.1875 -9.359375 -1.1875 -9.359375 -1.1875 C -9.359375 -1.1875 -9.359375 -2.359375 -9.359375 -2.359375 C -9.359375 -2.359375 -7.34375 -2.359375 -7.34375 -2.359375 C -7.34375 -2.359375 -7.34375 -3.5625 -7.34375 -3.5625 C -7.34375 -3.5625 -6.390625 -3.5625 -6.390625 -3.5625 C -6.390625 -3.5625 -6.390625 -2.359375 -6.390625 -2.359375 C -6.390625 -2.359375 -1.578125 -2.359375 -1.578125 -2.359375 C -1.0625 -2.359375 -0.921875 -2.484375 -0.921875 -3 C -0.921875 -3.21875 -0.9375 -3.40625 -0.984375 -3.5625 C -0.984375 -3.5625 0 -3.5625 0 -3.5625 Z M 0 -3.5625 "/>
</g>
<g id="glyph-6-1-81961495">
<path d="M -3.609375 -7.140625 C -1.203125 -7.140625 0.203125 -5.875 0.203125 -3.828125 C 0.203125 -1.734375 -1.203125 -0.5 -3.671875 -0.5 C -6.125 -0.5 -7.546875 -1.75 -7.546875 -3.8125 C -7.546875 -5.921875 -6.140625 -7.140625 -3.609375 -7.140625 Z M -3.625 -5.921875 C -5.453125 -5.921875 -6.46875 -5.140625 -6.46875 -3.828125 C -6.46875 -2.515625 -5.4375 -1.71875 -3.671875 -1.71875 C -1.890625 -1.71875 -0.875 -2.515625 -0.875 -3.828125 C -0.875 -5.109375 -1.90625 -5.921875 -3.625 -5.921875 Z M -3.625 -5.921875 "/>
</g>
<g id="glyph-6-2-81961495">
<path d="M 0 -2.140625 C 0 -2.140625 0 -0.984375 0 -0.984375 C 0 -0.984375 -7.34375 -0.984375 -7.34375 -0.984375 C -7.34375 -0.984375 -7.34375 -2.140625 -7.34375 -2.140625 C -7.34375 -2.140625 0 -2.140625 0 -2.140625 Z M -8.4375 -2.296875 C -8.4375 -2.296875 -8.4375 -0.84375 -8.4375 -0.84375 C -8.4375 -0.84375 -9.890625 -0.84375 -9.890625 -0.84375 C -9.890625 -0.84375 -9.890625 -2.296875 -9.890625 -2.296875 C -9.890625 -2.296875 -8.4375 -2.296875 -8.4375 -2.296875 Z M -8.4375 -2.296875 "/>
</g>
<g id="glyph-7-0-81961495">
<path d="M 0 -2.140625 C 0 -2.140625 0 -0.984375 0 -0.984375 C 0 -0.984375 -7.34375 -0.984375 -7.34375 -0.984375 C -7.34375 -0.984375 -7.34375 -2.140625 -7.34375 -2.140625 C -7.34375 -2.140625 0 -2.140625 0 -2.140625 Z M -8.4375 -2.296875 C -8.4375 -2.296875 -8.4375 -0.84375 -8.4375 -0.84375 C -8.4375 -0.84375 -9.890625 -0.84375 -9.890625 -0.84375 C -9.890625 -0.84375 -9.890625 -2.296875 -9.890625 -2.296875 C -9.890625 -2.296875 -8.4375 -2.296875 -8.4375 -2.296875 Z M -8.4375 -2.296875 "/>
</g>
<g id="glyph-7-1-81961495">
<path d="M -7.34375 -6.796875 C -7.34375 -6.796875 0 -3.984375 0 -3.984375 C 0 -3.984375 0 -2.71875 0 -2.71875 C 0 -2.71875 -7.34375 -0.140625 -7.34375 -0.140625 C -7.34375 -0.140625 -7.34375 -1.453125 -7.34375 -1.453125 C -7.34375 -1.453125 -1.390625 -3.421875 -1.390625 -3.421875 C -1.390625 -3.421875 -7.34375 -5.484375 -7.34375 -5.484375 C -7.34375 -5.484375 -7.34375 -6.796875 -7.34375 -6.796875 Z M -7.34375 -6.796875 "/>
</g>
<g id="glyph-8-0-81961495">
<path d="M -2.0625 -6.421875 C -0.640625 -6.421875 0.203125 -5.25 0.203125 -3.40625 C 0.203125 -1.484375 -0.546875 -0.53125 -2.234375 -0.46875 C -2.234375 -0.46875 -2.234375 -1.703125 -2.234375 -1.703125 C -1.125 -1.859375 -0.875 -2.453125 -0.875 -3.5 C -0.875 -4.515625 -1.28125 -5.203125 -1.953125 -5.203125 C -2.484375 -5.203125 -2.734375 -4.890625 -2.921875 -4.078125 C -2.921875 -4.078125 -3.1875 -2.984375 -3.1875 -2.984375 C -3.609375 -1.25 -4.15625 -0.65625 -5.3125 -0.65625 C -6.65625 -0.65625 -7.546875 -1.765625 -7.546875 -3.46875 C -7.546875 -5.171875 -6.734375 -6.125 -5.296875 -6.125 C -5.296875 -6.125 -5.296875 -4.90625 -5.296875 -4.90625 C -6.0625 -4.875 -6.46875 -4.375 -6.46875 -3.4375 C -6.46875 -2.484375 -6.03125 -1.875 -5.359375 -1.875 C -4.84375 -1.875 -4.53125 -2.28125 -4.3125 -3.234375 C -4.3125 -3.234375 -4.046875 -4.359375 -4.046875 -4.359375 C -3.703125 -5.8125 -3.15625 -6.421875 -2.0625 -6.421875 Z M -2.0625 -6.421875 "/>
</g>
<g id="glyph-8-1-81961495">
<path d="M 0 -2.140625 C 0 -2.140625 0 -0.984375 0 -0.984375 C 0 -0.984375 -7.34375 -0.984375 -7.34375 -0.984375 C -7.34375 -0.984375 -7.34375 -2.140625 -7.34375 -2.140625 C -7.34375 -2.140625 0 -2.140625 0 -2.140625 Z M -8.4375 -2.296875 C -8.4375 -2.296875 -8.4375 -0.84375 -8.4375 -0.84375 C -8.4375 -0.84375 -9.890625 -0.84375 -9.890625 -0.84375 C -9.890625 -0.84375 -9.890625 -2.296875 -9.890625 -2.296875 C -9.890625 -2.296875 -8.4375 -2.296875 -8.4375 -2.296875 Z M -8.4375 -2.296875 "/>
</g>
<g id="glyph-8-2-81961495">
<path d="M 0 -6.390625 C 0 -6.390625 0 -0.4375 0 -0.4375 C 0 -0.4375 -1.046875 -0.4375 -1.046875 -0.4375 C -1.046875 -0.4375 -6.3125 -4.8125 -6.3125 -4.8125 C -6.3125 -4.8125 -6.3125 -0.734375 -6.3125 -0.734375 C -6.3125 -0.734375 -7.34375 -0.734375 -7.34375 -0.734375 C -7.34375 -0.734375 -7.34375 -6.203125 -7.34375 -6.203125 C -7.34375 -6.203125 -6.296875 -6.203125 -6.296875 -6.203125 C -6.296875 -6.203125 -1.015625 -1.84375 -1.015625 -1.84375 C -1.015625 -1.84375 -1.015625 -6.390625 -1.015625 -6.390625 C -1.015625 -6.390625 0 -6.390625 0 -6.390625 Z M 0 -6.390625 "/>
</g>
<g id="glyph-8-3-81961495">
<path d="M -3.328125 -7.1875 C -3.328125 -7.1875 -3.328125 -1.78125 -3.328125 -1.78125 C -1.65625 -1.8125 -0.875 -2.71875 -0.875 -3.9375 C -0.875 -4.875 -1.265625 -5.53125 -2.21875 -5.859375 C -2.21875 -5.859375 -2.21875 -7.03125 -2.21875 -7.03125 C -0.734375 -6.734375 0.203125 -5.578125 0.203125 -3.890625 C 0.203125 -1.828125 -1.21875 -0.5625 -3.625 -0.5625 C -6.03125 -0.5625 -7.546875 -1.875 -7.546875 -3.921875 C -7.546875 -5.296875 -6.8125 -6.40625 -5.609375 -6.890625 C -5.0625 -7.09375 -4.390625 -7.1875 -3.328125 -7.1875 Z M -4.375 -5.9375 C -5.515625 -5.9375 -6.46875 -5.046875 -6.46875 -3.90625 C -6.46875 -2.734375 -5.59375 -1.90625 -4.28125 -1.8125 C -4.28125 -1.8125 -4.28125 -5.921875 -4.28125 -5.921875 C -4.3125 -5.9375 -4.375 -5.9375 -4.375 -5.9375 Z M -4.375 -5.9375 "/>
</g>
<g id="glyph-8-4-81961495">
</g>
<g id="glyph-8-5-81961495">
<path d="M 0 -6.9375 C 0 -6.9375 0 -5.890625 0 -5.890625 C 0 -5.890625 -1.078125 -5.890625 -1.078125 -5.890625 C -0.171875 -5.265625 0.203125 -4.5625 0.203125 -3.5625 C 0.203125 -1.578125 -1.265625 -0.359375 -3.734375 -0.359375 C -6.078125 -0.359375 -7.546875 -1.609375 -7.546875 -3.515625 C -7.546875 -4.5 -7.15625 -5.28125 -6.40625 -5.765625 C -6.40625 -5.765625 -10.203125 -5.765625 -10.203125 -5.765625 C -10.203125 -5.765625 -10.203125 -6.9375 -10.203125 -6.9375 C -10.203125 -6.9375 0 -6.9375 0 -6.9375 Z M -3.640625 -5.765625 C -5.328125 -5.765625 -6.453125 -4.96875 -6.453125 -3.703125 C -6.453125 -2.4375 -5.375 -1.578125 -3.671875 -1.578125 C -1.953125 -1.578125 -0.875 -2.4375 -0.875 -3.71875 C -0.875 -4.953125 -1.953125 -5.765625 -3.640625 -5.765625 Z M -3.640625 -5.765625 "/>
</g>
<g id="glyph-8-6-81961495">
<path d="M 0 -6.75 C 0 -6.75 0 -5.703125 0 -5.703125 C 0 -5.703125 -1.140625 -5.703125 -1.140625 -5.703125 C -0.171875 -5.015625 0.203125 -4.328125 0.203125 -3.25 C 0.203125 -1.8125 -0.578125 -0.90625 -1.796875 -0.90625 C -1.796875 -0.90625 -7.34375 -0.90625 -7.34375 -0.90625 C -7.34375 -0.90625 -7.34375 -2.078125 -7.34375 -2.078125 C -7.34375 -2.078125 -2.25 -2.078125 -2.25 -2.078125 C -1.375 -2.078125 -0.8125 -2.65625 -0.8125 -3.578125 C -0.8125 -4.796875 -1.796875 -5.59375 -3.296875 -5.59375 C -3.296875 -5.59375 -7.34375 -5.59375 -7.34375 -5.59375 C -7.34375 -5.59375 -7.34375 -6.75 -7.34375 -6.75 C -7.34375 -6.75 0 -6.75 0 -6.75 Z M 0 -6.75 "/>
</g>
<g id="glyph-8-7-81961495">
<path d="M -0.03125 -7.484375 C 0.0625 -7.109375 0.09375 -6.9375 0.09375 -6.6875 C 0.09375 -6.125 -0.3125 -5.609375 -0.875 -5.484375 C -0.1875 -4.84375 0.203125 -3.9375 0.203125 -3 C 0.203125 -1.515625 -0.578125 -0.59375 -1.90625 -0.59375 C -2.796875 -0.59375 -3.453125 -1.015625 -3.8125 -1.875 C -3.984375 -2.328125 -4.046875 -2.578125 -4.25 -4.234375 C -4.375 -5.15625 -4.578125 -5.453125 -5.0625 -5.453125 C -5.0625 -5.453125 -5.375 -5.453125 -5.375 -5.453125 C -6.078125 -5.453125 -6.46875 -4.859375 -6.46875 -3.8125 C -6.46875 -2.71875 -6.0625 -2.1875 -5.171875 -2.09375 C -5.171875 -2.09375 -5.171875 -0.90625 -5.171875 -0.90625 C -6.859375 -0.984375 -7.546875 -2.078125 -7.546875 -3.84375 C -7.546875 -5.65625 -6.84375 -6.609375 -5.546875 -6.609375 C -5.546875 -6.609375 -1.453125 -6.609375 -1.453125 -6.609375 C -1.09375 -6.609375 -0.875 -6.828125 -0.875 -7.234375 C -0.875 -7.3125 -0.875 -7.359375 -0.90625 -7.484375 C -0.90625 -7.484375 -0.03125 -7.484375 -0.03125 -7.484375 Z M -2.53125 -5.453125 C -2.53125 -5.453125 -3.625 -5.453125 -3.625 -5.453125 C -3.4375 -5.046875 -3.390625 -4.796875 -3.21875 -3.5625 C -3.03125 -2.328125 -2.703125 -1.8125 -1.9375 -1.8125 C -1.140625 -1.8125 -0.8125 -2.34375 -0.8125 -3.25 C -0.8125 -4.375 -1.484375 -5.453125 -2.53125 -5.453125 Z M -2.53125 -5.453125 "/>
</g>
<g id="glyph-8-8-81961495">
<path d="M 0 -2.109375 C 0 -2.109375 0 -0.953125 0 -0.953125 C 0 -0.953125 -10.203125 -0.953125 -10.203125 -0.953125 C -10.203125 -0.953125 -10.203125 -2.109375 -10.203125 -2.109375 C -10.203125 -2.109375 0 -2.109375 0 -2.109375 Z M 0 -2.109375 "/>
</g>
<g id="glyph-9-0-81961495">
<path d="M 0 -2.140625 C 0 -2.140625 0 -0.984375 0 -0.984375 C 0 -0.984375 -7.34375 -0.984375 -7.34375 -0.984375 C -7.34375 -0.984375 -7.34375 -2.140625 -7.34375 -2.140625 C -7.34375 -2.140625 0 -2.140625 0 -2.140625 Z M -8.4375 -2.296875 C -8.4375 -2.296875 -8.4375 -0.84375 -8.4375 -0.84375 C -8.4375 -0.84375 -9.890625 -0.84375 -9.890625 -0.84375 C -9.890625 -0.84375 -9.890625 -2.296875 -9.890625 -2.296875 C -9.890625 -2.296875 -8.4375 -2.296875 -8.4375 -2.296875 Z M -8.4375 -2.296875 "/>
</g>
<g id="glyph-10-0-81961495">
<path d="M 8.859375 -7.046875 C 8.859375 -4.96875 7.65625 -3.640625 5.78125 -3.640625 C 5.78125 -3.640625 3.15625 -3.640625 3.15625 -3.640625 C 3.15625 -3.640625 3.15625 0 3.15625 0 C 3.15625 0 1.0625 0 1.0625 0 C 1.0625 0 1.0625 -10.203125 1.0625 -10.203125 C 1.0625 -10.203125 5.578125 -10.203125 5.578125 -10.203125 C 7.703125 -10.203125 8.859375 -9.09375 8.859375 -7.046875 Z M 6.765625 -6.921875 C 6.765625 -7.96875 6.25 -8.453125 5.125 -8.453125 C 5.125 -8.453125 3.15625 -8.453125 3.15625 -8.453125 C 3.15625 -8.453125 3.15625 -5.390625 3.15625 -5.390625 C 3.15625 -5.390625 5.125 -5.390625 5.125 -5.390625 C 6.25 -5.390625 6.765625 -5.875 6.765625 -6.921875 Z M 6.765625 -6.921875 "/>
</g>
<g id="glyph-10-1-81961495">
<path d="M 7.96875 -3.71875 C 7.96875 -1.296875 6.53125 0.125 4.234375 0.125 C 1.90625 0.125 0.484375 -1.28125 0.484375 -3.78125 C 0.484375 -6.265625 1.90625 -7.6875 4.21875 -7.6875 C 6.578125 -7.6875 7.96875 -6.28125 7.96875 -3.71875 Z M 6 -3.75 C 6 -5.234375 5.3125 -6.109375 4.234375 -6.109375 C 3.15625 -6.109375 2.453125 -5.21875 2.453125 -3.78125 C 2.453125 -2.34375 3.15625 -1.453125 4.234375 -1.453125 C 5.28125 -1.453125 6 -2.34375 6 -3.75 Z M 6 -3.75 "/>
</g>
<g id="glyph-10-2-81961495">
<path d="M 8.03125 -3.78125 C 8.03125 -1.484375 6.6875 0.125 4.875 0.125 C 3.921875 0.125 3.25 -0.171875 2.765625 -1.015625 C 2.765625 -1.015625 2.765625 3.046875 2.765625 3.046875 C 2.765625 3.046875 0.8125 3.046875 0.8125 3.046875 C 0.8125 3.046875 0.8125 -7.5625 0.8125 -7.5625 C 0.8125 -7.5625 2.765625 -7.5625 2.765625 -7.5625 C 2.765625 -7.5625 2.765625 -6.4375 2.765625 -6.4375 C 3.25 -7.28125 3.921875 -7.6875 4.875 -7.6875 C 6.84375 -7.6875 8.03125 -6.015625 8.03125 -3.78125 Z M 6.078125 -3.75 C 6.078125 -5.1875 5.421875 -6.046875 4.421875 -6.046875 C 3.4375 -6.046875 2.765625 -5.1875 2.765625 -3.78125 C 2.765625 -2.359375 3.4375 -1.515625 4.421875 -1.515625 C 5.390625 -1.515625 6.078125 -2.375 6.078125 -3.75 Z M 6.078125 -3.75 "/>
</g>
<g id="glyph-10-3-81961495">
<path d="M 7.578125 0 C 7.578125 0 5.609375 0 5.609375 0 C 5.609375 0 5.609375 -1 5.609375 -1 C 5.046875 -0.25 4.375 0.125 3.34375 0.125 C 1.734375 0.125 0.8125 -0.828125 0.8125 -2.484375 C 0.8125 -2.484375 0.8125 -7.5625 0.8125 -7.5625 C 0.8125 -7.5625 2.765625 -7.5625 2.765625 -7.5625 C 2.765625 -7.5625 2.765625 -2.890625 2.765625 -2.890625 C 2.765625 -1.984375 3.1875 -1.546875 4.03125 -1.546875 C 4.984375 -1.546875 5.609375 -2.125 5.609375 -3.03125 C 5.609375 -3.03125 5.609375 -7.5625 5.609375 -7.5625 C 5.609375 -7.5625 7.578125 -7.5625 7.578125 -7.5625 C 7.578125 -7.5625 7.578125 0 7.578125 0 Z M 7.578125 0 "/>
</g>
<g id="glyph-10-4-81961495">
<path d="M 2.890625 0 C 2.890625 0 0.9375 0 0.9375 0 C 0.9375 0 0.9375 -10.203125 0.9375 -10.203125 C 0.9375 -10.203125 2.890625 -10.203125 2.890625 -10.203125 C 2.890625 -10.203125 2.890625 0 2.890625 0 Z M 2.890625 0 "/>
</g>
<g id="glyph-10-5-81961495">
<path d="M 7.34375 0 C 7.34375 0 5.203125 0 5.203125 0 C 5.03125 -0.21875 4.984375 -0.5625 4.984375 -0.953125 C 4.296875 -0.234375 3.53125 0.125 2.6875 0.125 C 1.421875 0.125 0.390625 -0.578125 0.390625 -2.046875 C 0.390625 -3.421875 1.125 -4.0625 2.625 -4.328125 C 2.625 -4.328125 3.40625 -4.46875 3.40625 -4.46875 C 4.375 -4.640625 4.96875 -4.546875 4.96875 -5.34375 C 4.96875 -5.859375 4.59375 -6.109375 3.84375 -6.109375 C 2.875 -6.109375 2.546875 -5.859375 2.453125 -5.0625 C 2.453125 -5.0625 0.5625 -5.0625 0.5625 -5.0625 C 0.6875 -6.8125 1.75 -7.6875 3.796875 -7.6875 C 5.84375 -7.6875 6.890625 -6.90625 6.890625 -5.359375 C 6.890625 -5.359375 6.890625 -1.15625 6.890625 -1.15625 C 6.890625 -0.765625 6.984375 -0.5625 7.34375 -0.234375 C 7.34375 -0.234375 7.34375 0 7.34375 0 Z M 4.96875 -3.234375 C 4.96875 -3.234375 4.96875 -3.5625 4.96875 -3.5625 C 4.75 -3.453125 4.65625 -3.4375 4.140625 -3.328125 C 4.140625 -3.328125 3.46875 -3.203125 3.46875 -3.203125 C 2.65625 -3.046875 2.359375 -2.84375 2.359375 -2.265625 C 2.359375 -1.703125 2.765625 -1.453125 3.421875 -1.453125 C 4.40625 -1.453125 4.96875 -2.09375 4.96875 -3.234375 Z M 4.96875 -3.234375 "/>
</g>
<g id="glyph-10-6-81961495">
<path d="M 4.21875 0 C 3.859375 0.015625 3.515625 0.0625 3.078125 0.0625 C 1.796875 0.0625 1.15625 -0.4375 1.15625 -1.625 C 1.15625 -1.625 1.15625 -6.109375 1.15625 -6.109375 C 1.15625 -6.109375 0.203125 -6.109375 0.203125 -6.109375 C 0.203125 -6.109375 0.203125 -7.40625 0.203125 -7.40625 C 0.203125 -7.40625 1.15625 -7.40625 1.15625 -7.40625 C 1.15625 -7.40625 1.15625 -9.4375 1.15625 -9.4375 C 1.15625 -9.4375 3.125 -9.4375 3.125 -9.4375 C 3.125 -9.4375 3.125 -7.40625 3.125 -7.40625 C 3.125 -7.40625 4.21875 -7.40625 4.21875 -7.40625 C 4.21875 -7.40625 4.21875 -6.109375 4.21875 -6.109375 C 4.21875 -6.109375 3.125 -6.109375 3.125 -6.109375 C 3.125 -6.109375 3.125 -2.15625 3.125 -2.15625 C 3.125 -1.484375 3.25 -1.328125 3.765625 -1.328125 C 3.90625 -1.328125 4.015625 -1.34375 4.21875 -1.375 C 4.21875 -1.375 4.21875 0 4.21875 0 Z M 4.21875 0 "/>
</g>
<g id="glyph-10-7-81961495">
<path d="M 2.890625 0 C 2.890625 0 0.9375 0 0.9375 0 C 0.9375 0 0.9375 -7.5625 0.9375 -7.5625 C 0.9375 -7.5625 2.890625 -7.5625 2.890625 -7.5625 C 2.890625 -7.5625 2.890625 0 2.890625 0 Z M 2.921875 -8.46875 C 2.921875 -8.46875 0.96875 -8.46875 0.96875 -8.46875 C 0.96875 -8.46875 0.96875 -10.4375 0.96875 -10.4375 C 0.96875 -10.4375 2.921875 -10.4375 2.921875 -10.4375 C 2.921875 -10.4375 2.921875 -8.46875 2.921875 -8.46875 Z M 2.921875 -8.46875 "/>
</g>
<g id="glyph-10-8-81961495">
<path d="M 7.640625 0 C 7.640625 0 5.6875 0 5.6875 0 C 5.6875 0 5.6875 -4.65625 5.6875 -4.65625 C 5.6875 -5.5625 5.265625 -6.015625 4.421875 -6.015625 C 3.46875 -6.015625 2.84375 -5.4375 2.84375 -4.53125 C 2.84375 -4.53125 2.84375 0 2.84375 0 C 2.84375 0 0.875 0 0.875 0 C 0.875 0 0.875 -7.5625 0.875 -7.5625 C 0.875 -7.5625 2.84375 -7.5625 2.84375 -7.5625 C 2.84375 -7.5625 2.84375 -6.46875 2.84375 -6.46875 C 3.40625 -7.3125 4.09375 -7.6875 5.109375 -7.6875 C 6.71875 -7.6875 7.640625 -6.734375 7.640625 -5.0625 C 7.640625 -5.0625 7.640625 0 7.640625 0 Z M 7.640625 0 "/>
</g>
<g id="glyph-10-9-81961495">
</g>
<g id="glyph-10-10-81961495">
<path d="M 7.578125 0.25 C 7.578125 2.03125 6.265625 3.046875 3.96875 3.046875 C 1.90625 3.046875 0.65625 2.140625 0.625 0.90625 C 0.625 0.90625 2.65625 0.90625 2.65625 0.90625 C 2.8125 1.484375 3.296875 1.796875 4.046875 1.796875 C 5.03125 1.796875 5.71875 1.15625 5.71875 0.25 C 5.71875 0.25 5.71875 -0.875 5.71875 -0.875 C 4.984375 -0.140625 4.453125 0.125 3.5625 0.125 C 1.703125 0.125 0.46875 -1.34375 0.46875 -3.703125 C 0.46875 -6.03125 1.8125 -7.6875 3.609375 -7.6875 C 4.484375 -7.6875 5.125 -7.296875 5.71875 -6.390625 C 5.71875 -6.390625 5.71875 -7.5625 5.71875 -7.5625 C 5.71875 -7.5625 7.578125 -7.5625 7.578125 -7.5625 C 7.578125 -7.5625 7.578125 0.25 7.578125 0.25 Z M 5.734375 -3.71875 C 5.734375 -5.125 5.015625 -6.046875 4.03125 -6.046875 C 3.078125 -6.046875 2.4375 -5.15625 2.4375 -3.71875 C 2.4375 -2.359375 3.078125 -1.515625 4 -1.515625 C 5.03125 -1.515625 5.734375 -2.359375 5.734375 -3.71875 Z M 5.734375 -3.71875 "/>
</g>
<g id="glyph-10-11-81961495">
<path d="M 5.1875 -5.6875 C 4.90625 -5.71875 4.78125 -5.734375 4.5625 -5.734375 C 3.421875 -5.734375 2.84375 -5.171875 2.84375 -4.015625 C 2.84375 -4.015625 2.84375 0 2.84375 0 C 2.84375 0 0.875 0 0.875 0 C 0.875 0 0.875 -7.5625 0.875 -7.5625 C 0.875 -7.5625 2.84375 -7.5625 2.84375 -7.5625 C 2.84375 -7.5625 2.84375 -6.078125 2.84375 -6.078125 C 3.265625 -7.09375 4.046875 -7.6875 4.9375 -7.6875 C 5 -7.6875 5.0625 -7.6875 5.1875 -7.671875 C 5.1875 -7.671875 5.1875 -5.6875 5.1875 -5.6875 Z M 5.1875 -5.6875 "/>
</g>
<g id="glyph-10-12-81961495">
<path d="M 10.71875 -7.5625 C 10.71875 -7.5625 8.578125 0 8.578125 0 C 8.578125 0 6.546875 0 6.546875 0 C 6.546875 0 5.421875 -5.328125 5.421875 -5.328125 C 5.421875 -5.328125 4.21875 0 4.21875 0 C 4.21875 0 2.203125 0 2.203125 0 C 2.203125 0 0.0625 -7.5625 0.0625 -7.5625 C 0.0625 -7.5625 2.09375 -7.5625 2.09375 -7.5625 C 2.09375 -7.5625 3.296875 -2.265625 3.296875 -2.265625 C 3.296875 -2.265625 4.453125 -7.5625 4.453125 -7.5625 C 4.453125 -7.5625 6.40625 -7.5625 6.40625 -7.5625 C 6.40625 -7.5625 7.546875 -2.265625 7.546875 -2.265625 C 7.546875 -2.265625 8.6875 -7.5625 8.6875 -7.5625 C 8.6875 -7.5625 10.71875 -7.5625 10.71875 -7.5625 Z M 10.71875 -7.5625 "/>
</g>
<g id="glyph-10-13-81961495">
<path d="M 7.578125 0 C 7.578125 0 5.609375 0 5.609375 0 C 5.609375 0 5.609375 -4.625 5.609375 -4.625 C 5.609375 -5.640625 5.109375 -6.015625 4.40625 -6.015625 C 3.53125 -6.015625 2.890625 -5.40625 2.890625 -4.53125 C 2.890625 -4.53125 2.890625 0 2.890625 0 C 2.890625 0 0.9375 0 0.9375 0 C 0.9375 0 0.9375 -10.203125 0.9375 -10.203125 C 0.9375 -10.203125 2.890625 -10.203125 2.890625 -10.203125 C 2.890625 -10.203125 2.890625 -6.46875 2.890625 -6.46875 C 3.4375 -7.296875 4.140625 -7.6875 5.109375 -7.6875 C 6.53125 -7.6875 7.578125 -6.828125 7.578125 -5.0625 C 7.578125 -5.0625 7.578125 0 7.578125 0 Z M 7.578125 0 "/>
</g>
<g id="glyph-10-14-81961495">
<path d="M 7.625 0 C 7.625 0 5.671875 0 5.671875 0 C 5.671875 0 5.671875 -0.875 5.671875 -0.875 C 5.1875 -0.21875 4.515625 0.125 3.578125 0.125 C 1.578125 0.125 0.40625 -1.625 0.40625 -3.765625 C 0.40625 -6.046875 1.78125 -7.6875 3.578125 -7.6875 C 4.515625 -7.6875 5.1875 -7.34375 5.671875 -6.578125 C 5.671875 -6.578125 5.671875 -10.203125 5.671875 -10.203125 C 5.671875 -10.203125 7.625 -10.203125 7.625 -10.203125 C 7.625 -10.203125 7.625 0 7.625 0 Z M 5.671875 -3.734375 C 5.671875 -5.1875 5.015625 -6.046875 4.015625 -6.046875 C 3.03125 -6.046875 2.359375 -5.171875 2.359375 -3.765625 C 2.359375 -2.375 3.03125 -1.515625 4.015625 -1.515625 C 5 -1.515625 5.671875 -2.359375 5.671875 -3.734375 Z M 5.671875 -3.734375 "/>
</g>
<g id="glyph-10-15-81961495">
<path d="M 7.34375 -3.5 C 7.34375 -3.5 7.34375 -3.265625 7.34375 -3.265625 C 7.34375 -3.265625 2.265625 -3.265625 2.265625 -3.265625 C 2.328125 -1.796875 2.90625 -1.375 3.84375 -1.375 C 4.546875 -1.375 5.171875 -1.578125 5.328125 -2.125 C 5.328125 -2.125 7.265625 -2.125 7.265625 -2.125 C 6.828125 -0.640625 5.453125 0.125 3.765625 0.125 C 1.625 0.125 0.3125 -1.265625 0.3125 -3.6875 C 0.3125 -6.21875 1.640625 -7.6875 3.8125 -7.6875 C 6.03125 -7.6875 7.34375 -6.109375 7.34375 -3.5 Z M 5.3125 -4.5625 C 5.203125 -5.640625 4.625 -6.1875 3.78125 -6.1875 C 2.90625 -6.1875 2.421875 -5.609375 2.296875 -4.5625 C 2.296875 -4.5625 5.3125 -4.5625 5.3125 -4.5625 Z M 5.3125 -4.5625 "/>
</g>
<g id="glyph-10-16-81961495">
<path d="M 7.3125 -2.625 C 7.125 -1.015625 5.859375 0.125 4.015625 0.125 C 1.78125 0.125 0.46875 -1.234375 0.46875 -3.71875 C 0.46875 -6.296875 1.796875 -7.6875 4.046875 -7.6875 C 5.9375 -7.6875 7.171875 -6.578125 7.3125 -4.734375 C 7.3125 -4.734375 5.4375 -4.734375 5.4375 -4.734375 C 5.203125 -5.71875 4.828125 -6.109375 4.03125 -6.109375 C 2.796875 -6.109375 2.4375 -5.109375 2.4375 -3.71875 C 2.4375 -2.25 3.03125 -1.453125 4.03125 -1.453125 C 4.78125 -1.453125 5.1875 -1.828125 5.4375 -2.625 C 5.4375 -2.625 7.3125 -2.625 7.3125 -2.625 Z M 7.3125 -2.625 "/>
</g>
<g id="glyph-10-17-81961495">
<path d="M 7.28125 -2.234375 C 7.28125 -0.71875 6.109375 0.125 3.96875 0.125 C 1.6875 0.125 0.46875 -0.734375 0.40625 -2.390625 C 0.40625 -2.390625 2.328125 -2.390625 2.328125 -2.390625 C 2.484375 -1.578125 2.96875 -1.40625 3.859375 -1.40625 C 4.78125 -1.40625 5.3125 -1.59375 5.3125 -2.0625 C 5.3125 -2.265625 5.15625 -2.421875 4.65625 -2.578125 C 4.65625 -2.578125 2.328125 -3.296875 2.328125 -3.296875 C 0.921875 -3.734375 0.671875 -4.234375 0.671875 -5.171875 C 0.671875 -6.71875 1.859375 -7.6875 3.78125 -7.6875 C 5.8125 -7.6875 7.046875 -6.71875 7.0625 -5.125 C 7.0625 -5.125 5.1875 -5.125 5.1875 -5.125 C 5.171875 -5.8125 4.703125 -6.140625 3.765625 -6.140625 C 3.078125 -6.140625 2.625 -5.859375 2.625 -5.453125 C 2.625 -5.140625 2.765625 -5.015625 3.3125 -4.859375 C 3.3125 -4.859375 5.796875 -4.140625 5.796875 -4.140625 C 6.796875 -3.84375 7.28125 -3.203125 7.28125 -2.34375 C 7.28125 -2.34375 7.28125 -2.234375 7.28125 -2.234375 Z M 7.28125 -2.234375 "/>
</g>
<g id="glyph-11-0-81961495">
<path d="M 2.890625 0 C 2.890625 0 0.9375 0 0.9375 0 C 0.9375 0 0.9375 -7.5625 0.9375 -7.5625 C 0.9375 -7.5625 2.890625 -7.5625 2.890625 -7.5625 C 2.890625 -7.5625 2.890625 0 2.890625 0 Z M 2.921875 -8.46875 C 2.921875 -8.46875 0.96875 -8.46875 0.96875 -8.46875 C 0.96875 -8.46875 0.96875 -10.4375 0.96875 -10.4375 C 0.96875 -10.4375 2.921875 -10.4375 2.921875 -10.4375 C 2.921875 -10.4375 2.921875 -8.46875 2.921875 -8.46875 Z M 2.921875 -8.46875 "/>
</g>
<g id="glyph-12-0-81961495">
<path d="M 6.8125 0 C 6.8125 0 5.65625 0 5.65625 0 C 5.65625 0 5.65625 -5.078125 5.65625 -5.078125 C 5.65625 -5.96875 5.0625 -6.53125 4.140625 -6.53125 C 2.953125 -6.53125 2.140625 -5.546875 2.140625 -4.046875 C 2.140625 -4.046875 2.140625 0 2.140625 0 C 2.140625 0 0.984375 0 0.984375 0 C 0.984375 0 0.984375 -7.34375 0.984375 -7.34375 C 0.984375 -7.34375 2.0625 -7.34375 2.0625 -7.34375 C 2.0625 -7.34375 2.0625 -6.109375 2.0625 -6.109375 C 2.703125 -7.125 3.40625 -7.546875 4.5 -7.546875 C 5.90625 -7.546875 6.8125 -6.765625 6.8125 -5.546875 C 6.8125 -5.546875 6.8125 0 6.8125 0 Z M 6.8125 0 "/>
</g>
<g id="glyph-13-0-81961495">
<path d="M 3.5625 0 C 3.15625 0.0625 2.890625 0.09375 2.609375 0.09375 C 1.6875 0.09375 1.1875 -0.328125 1.1875 -1.0625 C 1.1875 -1.0625 1.1875 -6.390625 1.1875 -6.390625 C 1.1875 -6.390625 0.203125 -6.390625 0.203125 -6.390625 C 0.203125 -6.390625 0.203125 -7.34375 0.203125 -7.34375 C 0.203125 -7.34375 1.1875 -7.34375 1.1875 -7.34375 C 1.1875 -7.34375 1.1875 -9.359375 1.1875 -9.359375 C 1.1875 -9.359375 2.359375 -9.359375 2.359375 -9.359375 C 2.359375 -9.359375 2.359375 -7.34375 2.359375 -7.34375 C 2.359375 -7.34375 3.5625 -7.34375 3.5625 -7.34375 C 3.5625 -7.34375 3.5625 -6.390625 3.5625 -6.390625 C 3.5625 -6.390625 2.359375 -6.390625 2.359375 -6.390625 C 2.359375 -6.390625 2.359375 -1.578125 2.359375 -1.578125 C 2.359375 -1.0625 2.484375 -0.921875 3 -0.921875 C 3.21875 -0.921875 3.40625 -0.9375 3.5625 -0.984375 C 3.5625 -0.984375 3.5625 0 3.5625 0 Z M 3.5625 0 "/>
</g>
</g>
</defs>
<rect x="-76" y="-43" width="912" height="516" fill="rgb(100%, 100%, 100%)" fill-opacity="1"/>
<path fill-rule="nonzero" fill="rgb(100%, 100%, 100%)" fill-opacity="1" d="M 62 371 L 744 371 L 744 36 L 62 36 Z M 62 371 "/>
<path fill="none" stroke-width="1" stroke-linecap="butt" stroke-linejoin="miter" stroke="rgb(0%, 0%, 0%)" stroke-opacity="0.12" stroke-miterlimit="1.154701" d="M 93 371 L 93 36 "/>
<path fill="none" stroke-width="1" stroke-linecap="butt" stroke-linejoin="miter" stroke="rgb(0%, 0%, 0%)" stroke-opacity="0.12" stroke-miterlimit="1.154701" d="M 351.332031 371 L 351.332031 36 "/>
<path fill="none" stroke-width="1" stroke-linecap="butt" stroke-linejoin="miter" stroke="rgb(0%, 0%, 0%)" stroke-opacity="0.12" stroke-miterlimit="1.154701" d="M 609.667969 371 L 609.667969 36 "/>
<path fill="none" stroke-width="1" stroke-linecap="butt" stroke-linejoin="miter" stroke="rgb(0%, 0%, 0%)" stroke-opacity="0.12" stroke-miterlimit="1.154701" d="M 62 346.25 L 744 346.25 "/>
<path fill="none" stroke-width="1" stroke-linecap="butt" stroke-linejoin="miter" stroke="rgb(0%, 0%, 0%)" stroke-opacity="0.12" stroke-miterlimit="1.154701" d="M 62 298.632812 L 744 298.632812 "/>
<path fill="none" stroke-width="1" stroke-linecap="butt" stroke-linejoin="miter" stroke="rgb(0%, 0%, 0%)" stroke-opacity="0.12" stroke-miterlimit="1.154701" d="M 62 251.015625 L 744 251.015625 "/>
<path fill="none" stroke-width="1" stroke-linecap="butt" stroke-linejoin="miter" stroke="rgb(0%, 0%, 0%)" stroke-opacity="0.12" stroke-miterlimit="1.154701" d="M 62 203.398438 L 744 203.398438 "/>
<path fill="none" stroke-width="1" stroke-linecap="butt" stroke-linejoin="miter" stroke="rgb(0%, 0%, 0%)" stroke-opacity="0.12" stroke-miterlimit="1.154701" d="M 62 155.78125 L 744 155.78125 "/>
<path fill="none" stroke-width="1" stroke-linecap="butt" stroke-linejoin="miter" stroke="rgb(0%, 0%, 0%)" stroke-opacity="0.12" stroke-miterlimit="1.154701" d="M 62 108.164062 L 744 108.164062 "/>
<path fill="none" stroke-width="1" stroke-linecap="butt" stroke-linejoin="miter" stroke="rgb(0%, 0%, 0%)" stroke-opacity="0.12" stroke-miterlimit="1.154701" d="M 62 60.546875 L 744 60.546875 "/>
<g fill="rgb(0%, 0%, 0%)" fill-opacity="1">
<use xlink:href="#glyph-0-0-81961495" x="360.594017" y="411.568"/>
<use xlink:href="#glyph-0-1-81961495" x="369.932019" y="411.568"/>
<use xlink:href="#glyph-0-2-81961495" x="377.716018" y="411.568"/>
<use xlink:href="#glyph-0-3-81961495" x="389.378019" y="411.568"/>
<use xlink:href="#glyph-0-4-81961495" x="397.16202" y="411.568"/>
<use xlink:href="#glyph-0-5-81961495" x="400.270021" y="411.568"/>
<use xlink:href="#glyph-0-6-81961495" x="403.378023" y="411.568"/>
<use xlink:href="#glyph-0-7-81961495" x="411.162024" y="411.568"/>
<use xlink:href="#glyph-0-8-81961495" x="418.946025" y="411.568"/>
<use xlink:href="#glyph-0-9-81961495" x="422.838023" y="411.568"/>
<use xlink:href="#glyph-0-1-81961495" x="430.62202" y="411.568"/>
<use xlink:href="#glyph-0-10-81961495" x="438.406017" y="411.568"/>
</g>
<g fill="rgb(0%, 0%, 0%)" fill-opacity="1">
<use xlink:href="#glyph-0-11-81961495" x="89.108004" y="392.258001"/>
</g>
<g fill="rgb(0%, 0%, 0%)" fill-opacity="1">
<use xlink:href="#glyph-0-12-81961495" x="347.441358" y="392.258001"/>
</g>
<g fill="rgb(0%, 0%, 0%)" fill-opacity="1">
<use xlink:href="#glyph-0-13-81961495" x="601.882713" y="392.258001"/>
<use xlink:href="#glyph-0-11-81961495" x="609.666713" y="392.258001"/>
</g>
<g fill="rgb(0%, 0%, 0%)" fill-opacity="1">
<use xlink:href="#glyph-1-0-81961495" x="28.379995" y="290.250992"/>
</g>
<g fill="rgb(0%, 0%, 0%)" fill-opacity="1">
<use xlink:href="#glyph-2-0-81961495" x="28.379996" y="280.912995"/>
</g>
<g fill="rgb(0%, 0%, 0%)" fill-opacity="1">
<use xlink:href="#glyph-3-0-81961495" x="28.379997" y="273.128991"/>
<use xlink:href="#glyph-3-1-81961495" x="28.379997" y="265.344998"/>
</g>
<g fill="rgb(0%, 0%, 0%)" fill-opacity="1">
<use xlink:href="#glyph-4-0-81961495" x="28.379997" y="257.560998"/>
</g>
<g fill="rgb(0%, 0%, 0%)" fill-opacity="1">
<use xlink:href="#glyph-5-0-81961495" x="28.379998" y="254.452996"/>
</g>
<g fill="rgb(0%, 0%, 0%)" fill-opacity="1">
<use xlink:href="#glyph-6-0-81961495" x="28.379998" y="246.668996"/>
</g>
<g fill="rgb(0%, 0%, 0%)" fill-opacity="1">
<use xlink:href="#glyph-7-0-81961495" x="28.379998" y="242.776997"/>
</g>
<g fill="rgb(0%, 0%, 0%)" fill-opacity="1">
<use xlink:href="#glyph-6-1-81961495" x="28.379998" y="239.668996"/>
</g>
<g fill="rgb(0%, 0%, 0%)" fill-opacity="1">
<use xlink:href="#glyph-5-1-81961495" x="28.379999" y="231.884997"/>
<use xlink:href="#glyph-5-2-81961495" x="28.379999" y="224.100997"/>
</g>
<g fill="rgb(0%, 0%, 0%)" fill-opacity="1">
<use xlink:href="#glyph-8-0-81961495" x="28.38" y="220.208999"/>
<use xlink:href="#glyph-8-1-81961495" x="28.38" y="213.208999"/>
<use xlink:href="#glyph-8-2-81961495" x="28.38" y="210.100998"/>
<use xlink:href="#glyph-8-3-81961495" x="28.380001" y="203.100999"/>
<use xlink:href="#glyph-8-4-81961495" x="28.380001" y="195.317003"/>
</g>
<g fill="rgb(0%, 0%, 0%)" fill-opacity="1">
<use xlink:href="#glyph-5-3-81961495" x="28.380001" y="191.425005"/>
</g>
<g fill="rgb(0%, 0%, 0%)" fill-opacity="1">
<use xlink:href="#glyph-9-0-81961495" x="28.380002" y="186.763003"/>
</g>
<g fill="rgb(0%, 0%, 0%)" fill-opacity="1">
<use xlink:href="#glyph-5-1-81961495" x="28.380002" y="183.655002"/>
<use xlink:href="#glyph-5-4-81961495" x="28.380002" y="175.871005"/>
</g>
<g fill="rgb(0%, 0%, 0%)" fill-opacity="1">
<use xlink:href="#glyph-6-2-81961495" x="28.380003" y="168.08701"/>
</g>
<g fill="rgb(0%, 0%, 0%)" fill-opacity="1">
<use xlink:href="#glyph-7-1-81961495" x="28.380003" y="164.979009"/>
</g>
<g fill="rgb(0%, 0%, 0%)" fill-opacity="1">
<use xlink:href="#glyph-5-5-81961495" x="28.380003" y="157.979001"/>
</g>
<g fill="rgb(0%, 0%, 0%)" fill-opacity="1">
<use xlink:href="#glyph-8-5-81961495" x="28.380003" y="154.870999"/>
<use xlink:href="#glyph-8-6-81961495" x="28.380004" y="147.087003"/>
<use xlink:href="#glyph-8-7-81961495" x="28.380004" y="139.30301"/>
<use xlink:href="#glyph-8-8-81961495" x="28.380005" y="131.519014"/>
</g>
<g fill="rgb(0%, 0%, 0%)" fill-opacity="1">
<use xlink:href="#glyph-5-6-81961495" x="28.380005" y="128.411012"/>
<use xlink:href="#glyph-5-7-81961495" x="28.380006" y="121.411012"/>
</g>
<g fill="rgb(0%, 0%, 0%)" fill-opacity="1">
<use xlink:href="#glyph-0-14-81961495" x="36.432002" y="351.352344"/>
<use xlink:href="#glyph-0-11-81961495" x="44.216002" y="351.352344"/>
</g>
<g fill="rgb(0%, 0%, 0%)" fill-opacity="1">
<use xlink:href="#glyph-0-15-81961495" x="36.432002" y="303.735447"/>
<use xlink:href="#glyph-0-11-81961495" x="44.216002" y="303.735447"/>
</g>
<g fill="rgb(0%, 0%, 0%)" fill-opacity="1">
<use xlink:href="#glyph-0-16-81961495" x="36.432002" y="256.11855"/>
<use xlink:href="#glyph-0-11-81961495" x="44.216002" y="256.11855"/>
</g>
<g fill="rgb(0%, 0%, 0%)" fill-opacity="1">
<use xlink:href="#glyph-0-12-81961495" x="36.432002" y="208.501652"/>
<use xlink:href="#glyph-0-11-81961495" x="44.216002" y="208.501652"/>
</g>
<g fill="rgb(0%, 0%, 0%)" fill-opacity="1">
<use xlink:href="#glyph-0-17-81961495" x="36.432002" y="160.88477"/>
<use xlink:href="#glyph-0-11-81961495" x="44.216002" y="160.88477"/>
</g>
<g fill="rgb(0%, 0%, 0%)" fill-opacity="1">
<use xlink:href="#glyph-0-18-81961495" x="36.432002" y="113.267857"/>
<use xlink:href="#glyph-0-11-81961495" x="44.216002" y="113.267857"/>
</g>
<g fill="rgb(0%, 0%, 0%)" fill-opacity="1">
<use xlink:href="#glyph-0-19-81961495" x="36.432002" y="65.650975"/>
<use xlink:href="#glyph-0-11-81961495" x="44.216002" y="65.650975"/>
</g>
<g fill="rgb(0%, 0%, 0%)" fill-opacity="1">
<use xlink:href="#glyph-10-0-81961495" x="268.824017" y="28.948001"/>
<use xlink:href="#glyph-10-1-81961495" x="278.162014" y="28.948001"/>
<use xlink:href="#glyph-10-2-81961495" x="286.716016" y="28.948001"/>
<use xlink:href="#glyph-10-3-81961495" x="295.270017" y="28.948001"/>
<use xlink:href="#glyph-10-4-81961495" x="303.824018" y="28.948001"/>
<use xlink:href="#glyph-10-5-81961495" x="307.716017" y="28.948001"/>
<use xlink:href="#glyph-10-6-81961495" x="315.500014" y="28.948001"/>
<use xlink:href="#glyph-10-7-81961495" x="320.162016" y="28.948001"/>
<use xlink:href="#glyph-10-1-81961495" x="324.054015" y="28.948001"/>
<use xlink:href="#glyph-10-8-81961495" x="332.608016" y="28.948001"/>
<use xlink:href="#glyph-10-9-81961495" x="341.162017" y="28.948001"/>
<use xlink:href="#glyph-10-10-81961495" x="345.054016" y="28.948001"/>
<use xlink:href="#glyph-10-11-81961495" x="353.608017" y="28.948001"/>
<use xlink:href="#glyph-10-1-81961495" x="359.054016" y="28.948001"/>
<use xlink:href="#glyph-10-12-81961495" x="367.608017" y="28.948001"/>
<use xlink:href="#glyph-10-6-81961495" x="378.500016" y="28.948001"/>
<use xlink:href="#glyph-10-13-81961495" x="383.162019" y="28.948001"/>
<use xlink:href="#glyph-10-9-81961495" x="391.71602" y="28.948001"/>
<use xlink:href="#glyph-10-3-81961495" x="395.608019" y="28.948001"/>
<use xlink:href="#glyph-10-8-81961495" x="404.16202" y="28.948001"/>
<use xlink:href="#glyph-10-14-81961495" x="412.716021" y="28.948001"/>
<use xlink:href="#glyph-10-15-81961495" x="421.270022" y="28.948001"/>
<use xlink:href="#glyph-10-11-81961495" x="429.054019" y="28.948001"/>
<use xlink:href="#glyph-10-9-81961495" x="434.500019" y="28.948001"/>
<use xlink:href="#glyph-10-6-81961495" x="438.392017" y="28.948001"/>
<use xlink:href="#glyph-10-12-81961495" x="443.05402" y="28.948001"/>
<use xlink:href="#glyph-10-1-81961495" x="453.946019" y="28.948001"/>
<use xlink:href="#glyph-10-9-81961495" x="462.50002" y="28.948001"/>
<use xlink:href="#glyph-10-16-81961495" x="466.392018" y="28.948001"/>
<use xlink:href="#glyph-10-1-81961495" x="474.176015" y="28.948001"/>
<use xlink:href="#glyph-10-8-81961495" x="482.730016" y="28.948001"/>
<use xlink:href="#glyph-10-14-81961495" x="491.284018" y="28.948001"/>
<use xlink:href="#glyph-10-7-81961495" x="499.838019" y="28.948001"/>
<use xlink:href="#glyph-10-6-81961495" x="503.730017" y="28.948001"/>
</g>
<g fill="rgb(0%, 0%, 0%)" fill-opacity="1">
<use xlink:href="#glyph-11-0-81961495" x="508.39202" y="28.948001"/>
</g>
<g fill="rgb(0%, 0%, 0%)" fill-opacity="1">
<use xlink:href="#glyph-10-1-81961495" x="512.284019" y="28.948001"/>
<use xlink:href="#glyph-10-8-81961495" x="520.83802" y="28.948001"/>
<use xlink:href="#glyph-10-17-81961495" x="529.392021" y="28.948001"/>
</g>
<path fill="none" stroke-width="3" stroke-linecap="butt" stroke-linejoin="miter" stroke="rgb(27.450982%, 50.980395%, 70.588237%)" stroke-opacity="1" stroke-miterlimit="2" d="M 93 355.773438 L 144.667969 332.523438 L 196.332031 316.636719 L 248 308.714844 L 299.667969 302.03125 L 351.332031 288.71875 L 403 267.007812 L 454.667969 242.855469 L 506.332031 224.453125 L 558 214.710938 L 609.667969 208.578125 L 661.332031 197.683594 L 713 178.035156 "/>
<path fill-rule="nonzero" fill="rgb(27.450982%, 50.980395%, 70.588237%)" fill-opacity="1" d="M 96.523438 355.773438 C 96.523438 351.074219 89.476562 351.074219 89.476562 355.773438 C 89.476562 360.472656 96.523438 360.472656 96.523438 355.773438 Z M 96.523438 355.773438 "/>
<path fill-rule="nonzero" fill="rgb(27.450982%, 50.980395%, 70.588237%)" fill-opacity="1" d="M 148.191406 332.523438 C 148.191406 327.820312 141.140625 327.820312 141.140625 332.523438 C 141.140625 337.222656 148.191406 337.222656 148.191406 332.523438 Z M 148.191406 332.523438 "/>
<path fill-rule="nonzero" fill="rgb(27.450982%, 50.980395%, 70.588237%)" fill-opacity="1" d="M 199.859375 316.636719 C 199.859375 311.9375 192.808594 311.9375 192.808594 316.636719 C 192.808594 321.339844 199.859375 321.339844 199.859375 316.636719 Z M 199.859375 316.636719 "/>
<path fill-rule="nonzero" fill="rgb(27.450982%, 50.980395%, 70.588237%)" fill-opacity="1" d="M 251.523438 308.714844 C 251.523438 304.015625 244.476562 304.015625 244.476562 308.714844 C 244.476562 313.417969 251.523438 313.417969 251.523438 308.714844 Z M 251.523438 308.714844 "/>
<path fill-rule="nonzero" fill="rgb(27.450982%, 50.980395%, 70.588237%)" fill-opacity="1" d="M 303.191406 302.03125 C 303.191406 297.332031 296.140625 297.332031 296.140625 302.03125 C 296.140625 306.730469 303.191406 306.730469 303.191406 302.03125 Z M 303.191406 302.03125 "/>
<path fill-rule="nonzero" fill="rgb(27.450982%, 50.980395%, 70.588237%)" fill-opacity="1" d="M 354.859375 288.71875 C 354.859375 284.019531 347.808594 284.019531 347.808594 288.71875 C 347.808594 293.417969 354.859375 293.417969 354.859375 288.71875 Z M 354.859375 288.71875 "/>
<path fill-rule="nonzero" fill="rgb(27.450982%, 50.980395%, 70.588237%)" fill-opacity="1" d="M 406.523438 267.007812 C 406.523438 262.308594 399.476562 262.308594 399.476562 267.007812 C 399.476562 271.710938 406.523438 271.710938 406.523438 267.007812 Z M 406.523438 267.007812 "/>
<path fill-rule="nonzero" fill="rgb(27.450982%, 50.980395%, 70.588237%)" fill-opacity="1" d="M 458.191406 242.855469 C 458.191406 238.152344 451.140625 238.152344 451.140625 242.855469 C 451.140625 247.554688 458.191406 247.554688 458.191406 242.855469 Z M 458.191406 242.855469 "/>
<path fill-rule="nonzero" fill="rgb(27.450982%, 50.980395%, 70.588237%)" fill-opacity="1" d="M 509.859375 224.453125 C 509.859375 219.75 502.808594 219.75 502.808594 224.453125 C 502.808594 229.152344 509.859375 229.152344 509.859375 224.453125 Z M 509.859375 224.453125 "/>
<path fill-rule="nonzero" fill="rgb(27.450982%, 50.980395%, 70.588237%)" fill-opacity="1" d="M 561.523438 214.710938 C 561.523438 210.011719 554.476562 210.011719 554.476562 214.710938 C 554.476562 219.410156 561.523438 219.410156 561.523438 214.710938 Z M 561.523438 214.710938 "/>
<path fill-rule="nonzero" fill="rgb(27.450982%, 50.980395%, 70.588237%)" fill-opacity="1" d="M 613.191406 208.578125 C 613.191406 203.878906 606.140625 203.878906 606.140625 208.578125 C 606.140625 213.28125 613.191406 213.28125 613.191406 208.578125 Z M 613.191406 208.578125 "/>
<path fill-rule="nonzero" fill="rgb(27.450982%, 50.980395%, 70.588237%)" fill-opacity="1" d="M 664.859375 197.683594 C 664.859375 192.984375 657.808594 192.984375 657.808594 197.683594 C 657.808594 202.382812 664.859375 202.382812 664.859375 197.683594 Z M 664.859375 197.683594 "/>
<path fill-rule="nonzero" fill="rgb(27.450982%, 50.980395%, 70.588237%)" fill-opacity="1" d="M 716.523438 178.035156 C 716.523438 173.332031 709.476562 173.332031 709.476562 178.035156 C 709.476562 182.734375 716.523438 182.734375 716.523438 178.035156 Z M 716.523438 178.035156 "/>
<path fill="none" stroke-width="3" stroke-linecap="butt" stroke-linejoin="miter" stroke="rgb(100%, 54.901963%, 0%)" stroke-opacity="1" stroke-dasharray="9 9" stroke-miterlimit="2" d="M 93 355.773438 L 144.667969 320.1875 L 196.332031 289.644531 L 248 267.027344 L 299.667969 251.828125 L 351.332031 240.359375 L 403 227.335938 L 454.667969 208.140625 L 506.332031 180.796875 L 558 146.820312 L 609.667969 110.5625 L 661.332031 77.355469 L 713 51.226562 "/>
<path fill-rule="nonzero" fill="rgb(100%, 54.901963%, 0%)" fill-opacity="1" stroke-width="0.5" stroke-linecap="butt" stroke-linejoin="miter" stroke="rgb(0%, 0%, 0%)" stroke-opacity="1" stroke-miterlimit="2" d="M 93 349.953125 L 88.636719 358.683594 L 97.363281 358.683594 Z M 93 349.953125 "/>
<path fill-rule="nonzero" fill="rgb(100%, 54.901963%, 0%)" fill-opacity="1" stroke-width="0.5" stroke-linecap="butt" stroke-linejoin="miter" stroke="rgb(0%, 0%, 0%)" stroke-opacity="1" stroke-miterlimit="2" d="M 144.667969 314.367188 L 140.300781 323.097656 L 149.03125 323.097656 Z M 144.667969 314.367188 "/>
<path fill-rule="nonzero" fill="rgb(100%, 54.901963%, 0%)" fill-opacity="1" stroke-width="0.5" stroke-linecap="butt" stroke-linejoin="miter" stroke="rgb(0%, 0%, 0%)" stroke-opacity="1" stroke-miterlimit="2" d="M 196.332031 283.824219 L 191.96875 292.554688 L 200.699219 292.554688 Z M 196.332031 283.824219 "/>
<path fill-rule="nonzero" fill="rgb(100%, 54.901963%, 0%)" fill-opacity="1" stroke-width="0.5" stroke-linecap="butt" stroke-linejoin="miter" stroke="rgb(0%, 0%, 0%)" stroke-opacity="1" stroke-miterlimit="2" d="M 248 261.207031 L 243.636719 269.9375 L 252.363281 269.9375 Z M 248 261.207031 "/>
<path fill-rule="nonzero" fill="rgb(100%, 54.901963%, 0%)" fill-opacity="1" stroke-width="0.5" stroke-linecap="butt" stroke-linejoin="miter" stroke="rgb(0%, 0%, 0%)" stroke-opacity="1" stroke-miterlimit="2" d="M 299.667969 246.007812 L 295.300781 254.738281 L 304.03125 254.738281 Z M 299.667969 246.007812 "/>
<path fill-rule="nonzero" fill="rgb(100%, 54.901963%, 0%)" fill-opacity="1" stroke-width="0.5" stroke-linecap="butt" stroke-linejoin="miter" stroke="rgb(0%, 0%, 0%)" stroke-opacity="1" stroke-miterlimit="2" d="M 351.332031 234.539062 L 346.96875 243.269531 L 355.699219 243.269531 Z M 351.332031 234.539062 "/>
<path fill-rule="nonzero" fill="rgb(100%, 54.901963%, 0%)" fill-opacity="1" stroke-width="0.5" stroke-linecap="butt" stroke-linejoin="miter" stroke="rgb(0%, 0%, 0%)" stroke-opacity="1" stroke-miterlimit="2" d="M 403 221.515625 L 398.636719 230.246094 L 407.363281 230.246094 Z M 403 221.515625 "/>
<path fill-rule="nonzero" fill="rgb(100%, 54.901963%, 0%)" fill-opacity="1" stroke-width="0.5" stroke-linecap="butt" stroke-linejoin="miter" stroke="rgb(0%, 0%, 0%)" stroke-opacity="1" stroke-miterlimit="2" d="M 454.667969 202.320312 L 450.300781 211.050781 L 459.03125 211.050781 Z M 454.667969 202.320312 "/>
<path fill-rule="nonzero" fill="rgb(100%, 54.901963%, 0%)" fill-opacity="1" stroke-width="0.5" stroke-linecap="butt" stroke-linejoin="miter" stroke="rgb(0%, 0%, 0%)" stroke-opacity="1" stroke-miterlimit="2" d="M 506.332031 174.976562 L 501.96875 183.707031 L 510.699219 183.707031 Z M 506.332031 174.976562 "/>
<path fill-rule="nonzero" fill="rgb(100%, 54.901963%, 0%)" fill-opacity="1" stroke-width="0.5" stroke-linecap="butt" stroke-linejoin="miter" stroke="rgb(0%, 0%, 0%)" stroke-opacity="1" stroke-miterlimit="2" d="M 558 141 L 553.636719 149.730469 L 562.363281 149.730469 Z M 558 141 "/>
<path fill-rule="nonzero" fill="rgb(100%, 54.901963%, 0%)" fill-opacity="1" stroke-width="0.5" stroke-linecap="butt" stroke-linejoin="miter" stroke="rgb(0%, 0%, 0%)" stroke-opacity="1" stroke-miterlimit="2" d="M 609.667969 104.742188 L 605.300781 113.472656 L 614.03125 113.472656 Z M 609.667969 104.742188 "/>
<path fill-rule="nonzero" fill="rgb(100%, 54.901963%, 0%)" fill-opacity="1" stroke-width="0.5" stroke-linecap="butt" stroke-linejoin="miter" stroke="rgb(0%, 0%, 0%)" stroke-opacity="1" stroke-miterlimit="2" d="M 661.332031 71.535156 L 656.96875 80.265625 L 665.699219 80.265625 Z M 661.332031 71.535156 "/>
<path fill-rule="nonzero" fill="rgb(100%, 54.901963%, 0%)" fill-opacity="1" stroke-width="0.5" stroke-linecap="butt" stroke-linejoin="miter" stroke="rgb(0%, 0%, 0%)" stroke-opacity="1" stroke-miterlimit="2" d="M 713 45.40625 L 708.636719 54.136719 L 717.363281 54.136719 Z M 713 45.40625 "/>
<path fill="none" stroke-width="1" stroke-linecap="butt" stroke-linejoin="miter" stroke="rgb(0%, 0%, 0%)" stroke-opacity="1" stroke-miterlimit="1.154701" d="M 93 371.5 L 93 376.5 "/>
<path fill="none" stroke-width="1" stroke-linecap="butt" stroke-linejoin="miter" stroke="rgb(0%, 0%, 0%)" stroke-opacity="1" stroke-miterlimit="1.154701" d="M 351.332031 371.5 L 351.332031 376.5 "/>
<path fill="none" stroke-width="1" stroke-linecap="butt" stroke-linejoin="miter" stroke="rgb(0%, 0%, 0%)" stroke-opacity="1" stroke-miterlimit="1.154701" d="M 609.667969 371.5 L 609.667969 376.5 "/>
<path fill="none" stroke-width="1" stroke-linecap="butt" stroke-linejoin="miter" stroke="rgb(0%, 0%, 0%)" stroke-opacity="1" stroke-miterlimit="1.154701" d="M 61.5 346.25 L 56.5 346.25 "/>
<path fill="none" stroke-width="1" stroke-linecap="butt" stroke-linejoin="miter" stroke="rgb(0%, 0%, 0%)" stroke-opacity="1" stroke-miterlimit="1.154701" d="M 61.5 298.632812 L 56.5 298.632812 "/>
<path fill="none" stroke-width="1" stroke-linecap="butt" stroke-linejoin="miter" stroke="rgb(0%, 0%, 0%)" stroke-opacity="1" stroke-miterlimit="1.154701" d="M 61.5 251.015625 L 56.5 251.015625 "/>
<path fill="none" stroke-width="1" stroke-linecap="butt" stroke-linejoin="miter" stroke="rgb(0%, 0%, 0%)" stroke-opacity="1" stroke-miterlimit="1.154701" d="M 61.5 203.398438 L 56.5 203.398438 "/>
<path fill="none" stroke-width="1" stroke-linecap="butt" stroke-linejoin="miter" stroke="rgb(0%, 0%, 0%)" stroke-opacity="1" stroke-miterlimit="1.154701" d="M 61.5 155.78125 L 56.5 155.78125 "/>
<path fill="none" stroke-width="1" stroke-linecap="butt" stroke-linejoin="miter" stroke="rgb(0%, 0%, 0%)" stroke-opacity="1" stroke-miterlimit="1.154701" d="M 61.5 108.164062 L 56.5 108.164062 "/>
<path fill="none" stroke-width="1" stroke-linecap="butt" stroke-linejoin="miter" stroke="rgb(0%, 0%, 0%)" stroke-opacity="1" stroke-miterlimit="1.154701" d="M 61.5 60.546875 L 56.5 60.546875 "/>
<path fill="none" stroke-width="3" stroke-linecap="butt" stroke-linejoin="miter" stroke="rgb(27.450982%, 50.980395%, 70.588237%)" stroke-opacity="1" stroke-miterlimit="2" d="M 74.101562 58 L 94.101562 58 "/>
<path fill="none" stroke-width="3" stroke-linecap="butt" stroke-linejoin="miter" stroke="rgb(100%, 54.901963%, 0%)" stroke-opacity="1" stroke-dasharray="9 9" stroke-miterlimit="2" d="M 74.101562 81 L 94.101562 81 "/>
<g fill="rgb(0%, 0%, 0%)" fill-opacity="1">
<use xlink:href="#glyph-0-20-81961495" x="99.101006" y="63.103002"/>
<use xlink:href="#glyph-0-21-81961495" x="109.209006" y="63.103002"/>
</g>
<g fill="rgb(0%, 0%, 0%)" fill-opacity="1">
<use xlink:href="#glyph-12-0-81961495" x="116.993007" y="63.103002"/>
</g>
<g fill="rgb(0%, 0%, 0%)" fill-opacity="1">
<use xlink:href="#glyph-13-0-81961495" x="124.777008" y="63.103002"/>
</g>
<g fill="rgb(0%, 0%, 0%)" fill-opacity="1">
<use xlink:href="#glyph-0-22-81961495" x="128.669008" y="63.103002"/>
<use xlink:href="#glyph-0-21-81961495" x="133.331007" y="63.103002"/>
<use xlink:href="#glyph-0-4-81961495" x="141.115008" y="63.103002"/>
</g>
<g fill="rgb(0%, 0%, 0%)" fill-opacity="1">
<use xlink:href="#glyph-0-23-81961495" x="99.101006" y="86.103001"/>
<use xlink:href="#glyph-0-22-81961495" x="107.655007" y="86.103001"/>
<use xlink:href="#glyph-0-24-81961495" x="112.317006" y="86.103001"/>
<use xlink:href="#glyph-0-1-81961495" x="120.101007" y="86.103001"/>
</g>
<g fill="rgb(0%, 0%, 0%)" fill-opacity="1">
<use xlink:href="#glyph-13-0-81961495" x="127.885008" y="86.103001"/>
</g>
<g fill="rgb(0%, 0%, 0%)" fill-opacity="1">
<use xlink:href="#glyph-0-2-81961495" x="131.777006" y="86.103001"/>
<use xlink:href="#glyph-0-24-81961495" x="143.439005" y="86.103001"/>
<use xlink:href="#glyph-0-6-81961495" x="151.223006" y="86.103001"/>
<use xlink:href="#glyph-0-25-81961495" x="159.007007" y="86.103001"/>
</g>
<path fill="none" stroke-width="1" stroke-linecap="butt" stroke-linejoin="miter" stroke="rgb(0%, 0%, 0%)" stroke-opacity="1" stroke-miterlimit="1.154701" d="M 61.5 371 L 744.5 371 "/>
<path fill="none" stroke-width="1" stroke-linecap="butt" stroke-linejoin="miter" stroke="rgb(0%, 0%, 0%)" stroke-opacity="1" stroke-miterlimit="1.154701" d="M 62 371.5 L 62 35.5 "/>
<path fill="none" stroke-width="1" stroke-linecap="butt" stroke-linejoin="miter" stroke="rgb(0%, 0%, 0%)" stroke-opacity="1" stroke-miterlimit="1.154701" d="M 61.5 36 L 744.5 36 "/>
<path fill="none" stroke-width="1" stroke-linecap="butt" stroke-linejoin="miter" stroke="rgb(0%, 0%, 0%)" stroke-opacity="1" stroke-miterlimit="1.154701" d="M 744 371.5 L 744 35.5 "/>
</svg>
