<?xml version="1.0" encoding="UTF-8"?>
<svg xmlns="http://www.w3.org/2000/svg" xmlns:xlink="http://www.w3.org/1999/xlink" width="672" height="480" viewBox="0 0 672 480">
<defs>
<g>
<g id="glyph-0-0-a40c0beb">
<path d="M 4.859375 0 C 4.859375 0 3.625 0 3.625 0 C 3.625 0 3.625 -7.0625 3.625 -7.0625 C 3.625 -7.0625 1.421875 -7.0625 1.421875 -7.0625 C 1.421875 -7.0625 1.421875 -7.953125 1.421875 -7.953125 C 3.328125 -8.1875 3.609375 -8.40625 4.046875 -9.921875 C 4.046875 -9.921875 4.859375 -9.921875 4.859375 -9.921875 C 4.859375 -9.921875 4.859375 0 4.859375 0 Z M 4.859375 0 "/>
</g>
<g id="glyph-0-1-a40c0beb">
<path d="M 7.15625 -7.015625 C 7.15625 -5.796875 6.4375 -4.765625 5.046875 -4.015625 C 5.046875 -4.015625 3.65625 -3.265625 3.65625 -3.265625 C 2.4375 -2.546875 1.984375 -2.03125 1.859375 -1.21875 C 1.859375 -1.21875 7.078125 -1.21875 7.078125 -1.21875 C 7.078125 -1.21875 7.078125 0 7.078125 0 C 7.078125 0 0.46875 0 0.46875 0 C 0.59375 -2.1875 1.1875 -3.125 3.265625 -4.296875 C 3.265625 -4.296875 4.546875 -5.03125 4.546875 -5.03125 C 5.4375 -5.53125 5.890625 -6.203125 5.890625 -6.984375 C 5.890625 -8.046875 5.046875 -8.84375 3.9375 -8.84375 C 2.71875 -8.84375 2.03125 -8.140625 1.9375 -6.484375 C 1.9375 -6.484375 0.703125 -6.484375 0.703125 -6.484375 C 0.765625 -8.890625 1.953125 -9.921875 3.96875 -9.921875 C 5.859375 -9.921875 7.15625 -8.6875 7.15625 -7.015625 Z M 7.15625 -7.015625 "/>
</g>
<g id="glyph-0-2-a40c0beb">
<path d="M 7.078125 -2.890625 C 7.078125 -1.015625 5.765625 0.203125 3.71875 0.203125 C 1.6875 0.203125 0.609375 -0.78125 0.453125 -3 C 0.453125 -3 1.6875 -3 1.6875 -3 C 1.765625 -1.546875 2.421875 -0.875 3.765625 -0.875 C 5.046875 -0.875 5.828125 -1.625 5.828125 -2.875 C 5.828125 -3.96875 5.125 -4.625 3.765625 -4.625 C 3.765625 -4.625 3.09375 -4.625 3.09375 -4.625 C 3.09375 -4.625 3.09375 -5.65625 3.09375 -5.65625 C 5.0625 -5.65625 5.53125 -6.09375 5.53125 -7.15625 C 5.53125 -8.203125 4.875 -8.84375 3.78125 -8.84375 C 2.515625 -8.84375 1.921875 -8.1875 1.890625 -6.71875 C 1.890625 -6.71875 0.65625 -6.71875 0.65625 -6.71875 C 0.703125 -8.828125 1.765625 -9.921875 3.765625 -9.921875 C 5.65625 -9.921875 6.796875 -8.90625 6.796875 -7.203125 C 6.796875 -6.203125 6.328125 -5.5625 5.40625 -5.1875 C 6.59375 -4.78125 7.078125 -4.09375 7.078125 -2.890625 Z M 7.078125 -2.890625 "/>
</g>
<g id="glyph-0-3-a40c0beb">
<path d="M 7.28125 -2.375 C 7.28125 -2.375 5.8125 -2.375 5.8125 -2.375 C 5.8125 -2.375 5.8125 0 5.8125 0 C 5.8125 0 4.578125 0 4.578125 0 C 4.578125 0 4.578125 -2.375 4.578125 -2.375 C 4.578125 -2.375 0.390625 -2.375 0.390625 -2.375 C 0.390625 -2.375 0.390625 -3.6875 0.390625 -3.6875 C 0.390625 -3.6875 4.90625 -9.921875 4.90625 -9.921875 C 4.90625 -9.921875 5.8125 -9.921875 5.8125 -9.921875 C 5.8125 -9.921875 5.8125 -3.484375 5.8125 -3.484375 C 5.8125 -3.484375 7.28125 -3.484375 7.28125 -3.484375 C 7.28125 -3.484375 7.28125 -2.375 7.28125 -2.375 Z M 4.578125 -3.484375 C 4.578125 -3.484375 4.578125 -7.828125 4.578125 -7.828125 C 4.578125 -7.828125 1.46875 -3.484375 1.46875 -3.484375 C 1.46875 -3.484375 4.578125 -3.484375 4.578125 -3.484375 Z M 4.578125 -3.484375 "/>
</g>
<g id="glyph-0-4-a40c0beb">
<path d="M 7.1875 -3.296875 C 7.1875 -1.1875 5.78125 0.203125 3.78125 0.203125 C 2.015625 0.203125 0.890625 -0.578125 0.484375 -2.546875 C 0.484375 -2.546875 1.71875 -2.546875 1.71875 -2.546875 C 2.015625 -1.421875 2.671875 -0.875 3.75 -0.875 C 5.09375 -0.875 5.921875 -1.6875 5.921875 -3.125 C 5.921875 -4.59375 5.078125 -5.453125 3.75 -5.453125 C 2.984375 -5.453125 2.5 -5.203125 1.9375 -4.515625 C 1.9375 -4.515625 0.796875 -4.515625 0.796875 -4.515625 C 0.796875 -4.515625 1.546875 -9.71875 1.546875 -9.71875 C 1.546875 -9.71875 6.65625 -9.71875 6.65625 -9.71875 C 6.65625 -9.71875 6.65625 -8.5 6.65625 -8.5 C 6.65625 -8.5 2.53125 -8.5 2.53125 -8.5 C 2.53125 -8.5 2.140625 -5.9375 2.140625 -5.9375 C 2.71875 -6.359375 3.28125 -6.53125 3.96875 -6.53125 C 5.875 -6.53125 7.1875 -5.25 7.1875 -3.296875 Z M 7.1875 -3.296875 "/>
</g>
<g id="glyph-1-0-a40c0beb">
<path d="M 4.859375 0 C 4.859375 0 3.625 0 3.625 0 C 3.625 0 3.625 -7.0625 3.625 -7.0625 C 3.625 -7.0625 1.421875 -7.0625 1.421875 -7.0625 C 1.421875 -7.0625 1.421875 -7.953125 1.421875 -7.953125 C 3.328125 -8.1875 3.609375 -8.40625 4.046875 -9.921875 C 4.046875 -9.921875 4.859375 -9.921875 4.859375 -9.921875 C 4.859375 -9.921875 4.859375 0 4.859375 0 Z M 4.859375 0 "/>
</g>
<g id="glyph-1-1-a40c0beb">
<path d="M 7.15625 -7.015625 C 7.15625 -5.796875 6.4375 -4.765625 5.046875 -4.015625 C 5.046875 -4.015625 3.65625 -3.265625 3.65625 -3.265625 C 2.4375 -2.546875 1.984375 -2.03125 1.859375 -1.21875 C 1.859375 -1.21875 7.078125 -1.21875 7.078125 -1.21875 C 7.078125 -1.21875 7.078125 0 7.078125 0 C 7.078125 0 0.46875 0 0.46875 0 C 0.59375 -2.1875 1.1875 -3.125 3.265625 -4.296875 C 3.265625 -4.296875 4.546875 -5.03125 4.546875 -5.03125 C 5.4375 -5.53125 5.890625 -6.203125 5.890625 -6.984375 C 5.890625 -8.046875 5.046875 -8.84375 3.9375 -8.84375 C 2.71875 -8.84375 2.03125 -8.140625 1.9375 -6.484375 C 1.9375 -6.484375 0.703125 -6.484375 0.703125 -6.484375 C 0.765625 -8.890625 1.953125 -9.921875 3.96875 -9.921875 C 5.859375 -9.921875 7.15625 -8.6875 7.15625 -7.015625 Z M 7.15625 -7.015625 "/>
</g>
<g id="glyph-1-2-a40c0beb">
<path d="M 7.078125 -2.890625 C 7.078125 -1.015625 5.765625 0.203125 3.71875 0.203125 C 1.6875 0.203125 0.609375 -0.78125 0.453125 -3 C 0.453125 -3 1.6875 -3 1.6875 -3 C 1.765625 -1.546875 2.421875 -0.875 3.765625 -0.875 C 5.046875 -0.875 5.828125 -1.625 5.828125 -2.875 C 5.828125 -3.96875 5.125 -4.625 3.765625 -4.625 C 3.765625 -4.625 3.09375 -4.625 3.09375 -4.625 C 3.09375 -4.625 3.09375 -5.65625 3.09375 -5.65625 C 5.0625 -5.65625 5.53125 -6.09375 5.53125 -7.15625 C 5.53125 -8.203125 4.875 -8.84375 3.78125 -8.84375 C 2.515625 -8.84375 1.921875 -8.1875 1.890625 -6.71875 C 1.890625 -6.71875 0.65625 -6.71875 0.65625 -6.71875 C 0.703125 -8.828125 1.765625 -9.921875 3.765625 -9.921875 C 5.65625 -9.921875 6.796875 -8.90625 6.796875 -7.203125 C 6.796875 -6.203125 6.328125 -5.5625 5.40625 -5.1875 C 6.59375 -4.78125 7.078125 -4.09375 7.078125 -2.890625 Z M 7.078125 -2.890625 "/>
</g>
<g id="glyph-1-3-a40c0beb">
<path d="M 7.28125 -2.375 C 7.28125 -2.375 5.8125 -2.375 5.8125 -2.375 C 5.8125 -2.375 5.8125 0 5.8125 0 C 5.8125 0 4.578125 0 4.578125 0 C 4.578125 0 4.578125 -2.375 4.578125 -2.375 C 4.578125 -2.375 0.390625 -2.375 0.390625 -2.375 C 0.390625 -2.375 0.390625 -3.6875 0.390625 -3.6875 C 0.390625 -3.6875 4.90625 -9.921875 4.90625 -9.921875 C 4.90625 -9.921875 5.8125 -9.921875 5.8125 -9.921875 C 5.8125 -9.921875 5.8125 -3.484375 5.8125 -3.484375 C 5.8125 -3.484375 7.28125 -3.484375 7.28125 -3.484375 C 7.28125 -3.484375 7.28125 -2.375 7.28125 -2.375 Z M 4.578125 -3.484375 C 4.578125 -3.484375 4.578125 -7.828125 4.578125 -7.828125 C 4.578125 -7.828125 1.46875 -3.484375 1.46875 -3.484375 C 1.46875 -3.484375 4.578125 -3.484375 4.578125 -3.484375 Z M 4.578125 -3.484375 "/>
</g>
<g id="glyph-2-0-a40c0beb">
<path d="M 8.4375 0 C 8.4375 0 7.015625 0 7.015625 0 C 7.015625 0 6.640625 -3.0625 6.640625 -3.0625 C 6.640625 -3.0625 2.640625 -3.0625 2.640625 -3.0625 C 2.640625 -3.0625 0.921875 0 0.921875 0 C 0.921875 0 -0.46875 0 -0.46875 0 C -0.46875 0 5.34375 -10.203125 5.34375 -10.203125 C 5.34375 -10.203125 7.03125 -10.203125 7.03125 -10.203125 C 7.03125 -10.203125 8.4375 0 8.4375 0 Z M 6.5 -4.15625 C 6.5 -4.15625 5.9375 -8.8125 5.9375 -8.8125 C 5.9375 -8.8125 3.265625 -4.15625 3.265625 -4.15625 C 3.265625 -4.15625 6.5 -4.15625 6.5 -4.15625 Z M 6.5 -4.15625 "/>
</g>
<g id="glyph-3-0-a40c0beb">
<path d="M 1.4375 0 C 1.4375 0 0.265625 0 0.265625 0 C 0.265625 0 1.8125 -7.34375 1.8125 -7.34375 C 1.8125 -7.34375 3 -7.34375 3 -7.34375 C 3 -7.34375 1.4375 0 1.4375 0 Z M 3.671875 -9.890625 C 3.671875 -9.890625 3.359375 -8.453125 3.359375 -8.453125 C 3.359375 -8.453125 1.90625 -8.453125 1.90625 -8.453125 C 1.90625 -8.453125 2.21875 -9.890625 2.21875 -9.890625 C 2.21875 -9.890625 3.671875 -9.890625 3.671875 -9.890625 Z M 3.671875 -9.890625 "/>
</g>
<g id="glyph-3-1-a40c0beb">
<path d="M 3.59375 -10.203125 C 3.59375 -10.203125 1.421875 0 1.421875 0 C 1.421875 0 0.25 0 0.25 0 C 0.25 0 2.421875 -10.203125 2.421875 -10.203125 C 2.421875 -10.203125 3.59375 -10.203125 3.59375 -10.203125 Z M 3.59375 -10.203125 "/>
</g>
<g id="glyph-3-2-a40c0beb">
<path d="M 6.0625 0 C 6.0625 0 5 0 5 0 C 5 0 5.1875 -0.859375 5.1875 -0.859375 C 4.375 -0.125 3.578125 0.203125 2.484375 0.203125 C 1.28125 0.203125 0.5625 -0.359375 0.5625 -1.3125 C 0.5625 -1.5 0.578125 -1.65625 0.609375 -1.796875 C 0.609375 -1.796875 1.78125 -7.34375 1.78125 -7.34375 C 1.78125 -7.34375 2.953125 -7.34375 2.953125 -7.34375 C 2.953125 -7.34375 1.875 -2.25 1.875 -2.25 C 1.84375 -2.109375 1.828125 -1.984375 1.828125 -1.875 C 1.828125 -1.21875 2.328125 -0.796875 3.078125 -0.796875 C 4.265625 -0.796875 5.265625 -1.78125 5.59375 -3.296875 C 5.59375 -3.296875 6.4375 -7.34375 6.4375 -7.34375 C 6.4375 -7.34375 7.609375 -7.34375 7.609375 -7.34375 C 7.609375 -7.34375 6.0625 0 6.0625 0 Z M 6.0625 0 "/>
</g>
<g id="glyph-3-3-a40c0beb">
<path d="M 5.15625 -6.3125 C 5.15625 -6.3125 5.015625 -6.3125 5.015625 -6.3125 C 3.5625 -6.3125 2.609375 -5.453125 2.25 -3.8125 C 2.25 -3.8125 1.4375 0 1.4375 0 C 1.4375 0 0.265625 0 0.265625 0 C 0.265625 0 1.8125 -7.34375 1.8125 -7.34375 C 1.8125 -7.34375 2.890625 -7.34375 2.890625 -7.34375 C 2.890625 -7.34375 2.640625 -6.1875 2.640625 -6.1875 C 3.515625 -7.1875 4.140625 -7.546875 4.953125 -7.546875 C 5.109375 -7.546875 5.21875 -7.53125 5.40625 -7.5 C 5.40625 -7.5 5.15625 -6.3125 5.15625 -6.3125 Z M 5.15625 -6.3125 "/>
</g>
<g id="glyph-3-4-a40c0beb">
<path d="M 7.359375 -4.921875 C 7.359375 -2.015625 5.640625 0.203125 3.09375 0.203125 C 1.53125 0.203125 0.4375 -0.796875 0.4375 -2.359375 C 0.4375 -5.125 2.046875 -7.546875 4.671875 -7.546875 C 6.359375 -7.546875 7.359375 -6.40625 7.359375 -4.921875 Z M 6.125 -4.65625 C 6.125 -5.796875 5.53125 -6.46875 4.5 -6.46875 C 2.84375 -6.46875 1.671875 -4.65625 1.671875 -2.625 C 1.671875 -1.515625 2.296875 -0.875 3.296875 -0.875 C 4.953125 -0.875 6.125 -2.578125 6.125 -4.65625 Z M 6.125 -4.65625 "/>
</g>
<g id="glyph-3-5-a40c0beb">
<path d="M 7.5 -4.8125 C 7.5 -2.015625 5.84375 0.203125 3.4375 0.203125 C 2.453125 0.203125 1.875 -0.15625 1.421875 -1.015625 C 1.421875 -1.015625 0.578125 2.984375 0.578125 2.984375 C 0.578125 2.984375 -0.609375 2.984375 -0.609375 2.984375 C -0.609375 2.984375 1.59375 -7.34375 1.59375 -7.34375 C 1.59375 -7.34375 2.734375 -7.34375 2.734375 -7.34375 C 2.734375 -7.34375 2.484375 -6.15625 2.484375 -6.15625 C 2.859375 -6.953125 4.078125 -7.546875 5.0625 -7.546875 C 6.5625 -7.546875 7.5 -6.5 7.5 -4.8125 Z M 6.265625 -4.53125 C 6.265625 -5.734375 5.65625 -6.46875 4.609375 -6.46875 C 3.0625 -6.46875 1.875 -4.625 1.875 -2.625 C 1.875 -1.515625 2.53125 -0.875 3.5625 -0.875 C 5.140625 -0.875 6.265625 -2.609375 6.265625 -4.53125 Z M 6.265625 -4.53125 "/>
</g>
<g id="glyph-3-6-a40c0beb">
<path d="M 8.40625 -10.203125 C 8.40625 -10.203125 6.234375 0 6.234375 0 C 6.234375 0 5.09375 0 5.09375 0 C 5.09375 0 5.328125 -1.125 5.328125 -1.125 C 4.90625 -0.3125 3.71875 0.203125 2.75 0.203125 C 1.28125 0.203125 0.34375 -0.796875 0.34375 -2.4375 C 0.34375 -5.390625 2.0625 -7.546875 4.375 -7.546875 C 5.375 -7.546875 5.9375 -7.1875 6.390625 -6.265625 C 6.390625 -6.265625 7.21875 -10.203125 7.21875 -10.203125 C 7.21875 -10.203125 8.40625 -10.203125 8.40625 -10.203125 Z M 5.921875 -4.578125 C 5.921875 -5.765625 5.3125 -6.46875 4.265625 -6.46875 C 2.75 -6.46875 1.5625 -4.703125 1.5625 -2.71875 C 1.5625 -1.515625 2.1875 -0.875 3.21875 -0.875 C 4.703125 -0.875 5.921875 -2.609375 5.921875 -4.578125 Z M 5.921875 -4.578125 "/>
</g>
<g id="glyph-3-7-a40c0beb">
<path d="M 6.890625 0 C 6.328125 0.09375 6.34375 0.125 6.140625 0.125 C 5.46875 0.125 5.046875 -0.03125 5.046875 -0.609375 C 5.046875 -0.609375 5.046875 -0.8125 5.046875 -0.8125 C 3.96875 0.078125 3.15625 0.203125 2.25 0.203125 C 1 0.203125 0.21875 -0.40625 0.21875 -1.53125 C 0.21875 -2.34375 0.625 -3.03125 1.359375 -3.484375 C 2.046875 -3.921875 2.625 -4.046875 4.515625 -4.234375 C 5.5 -4.3125 5.828125 -4.484375 5.921875 -5.046875 C 5.921875 -5.046875 5.96875 -5.3125 5.96875 -5.3125 C 5.984375 -5.421875 5.984375 -5.515625 5.984375 -5.578125 C 5.984375 -6.09375 5.34375 -6.46875 4.515625 -6.46875 C 3.46875 -6.46875 2.875 -6.0625 2.59375 -5.171875 C 2.59375 -5.171875 1.40625 -5.171875 1.40625 -5.171875 C 1.6875 -6.71875 2.875 -7.546875 4.8125 -7.546875 C 6.28125 -7.546875 7.25 -6.921875 7.25 -5.96875 C 7.25 -5.828125 7.25 -5.828125 7.171875 -5.453125 C 7.171875 -5.453125 6.3125 -1.421875 6.3125 -1.421875 C 6.296875 -1.390625 6.296875 -1.34375 6.296875 -1.28125 C 6.296875 -1.015625 6.46875 -0.875 6.828125 -0.875 C 6.890625 -0.875 6.9375 -0.875 7.0625 -0.90625 C 7.0625 -0.90625 6.890625 0 6.890625 0 Z M 5.609375 -3.609375 C 5 -3.40625 4.890625 -3.390625 3.5625 -3.203125 C 2.09375 -3 1.453125 -2.546875 1.453125 -1.671875 C 1.453125 -1.078125 1.921875 -0.796875 2.71875 -0.796875 C 3.953125 -0.796875 5.1875 -1.546875 5.359375 -2.40625 C 5.359375 -2.40625 5.609375 -3.609375 5.609375 -3.609375 Z M 5.609375 -3.609375 "/>
</g>
<g id="glyph-3-8-a40c0beb">
<path d="M 7.015625 1.78125 C 7.015625 1.78125 6.859375 2.484375 6.859375 2.484375 C 6.859375 2.484375 -1.53125 2.484375 -1.53125 2.484375 C -1.53125 2.484375 -1.375 1.78125 -1.375 1.78125 C -1.375 1.78125 7.015625 1.78125 7.015625 1.78125 Z M 7.015625 1.78125 "/>
</g>
<g id="glyph-3-9-a40c0beb">
<path d="M 10.03125 0 C 10.03125 0 8.859375 0 8.859375 0 C 8.859375 0 9.875 -4.78125 9.875 -4.78125 C 10 -5.25 10 -5.25 10 -5.453125 C 10 -6.125 9.59375 -6.53125 8.9375 -6.53125 C 7.90625 -6.53125 6.953125 -5.703125 6.734375 -4.609375 C 6.734375 -4.609375 5.75 0 5.75 0 C 5.75 0 4.578125 0 4.578125 0 C 4.578125 0 5.65625 -5.046875 5.65625 -5.046875 C 5.703125 -5.234375 5.71875 -5.421875 5.71875 -5.578125 C 5.71875 -6.140625 5.25 -6.53125 4.5625 -6.53125 C 3.625 -6.53125 2.671875 -5.671875 2.453125 -4.609375 C 2.453125 -4.609375 1.46875 0 1.46875 0 C 1.46875 0 0.296875 0 0.296875 0 C 0.296875 0 1.84375 -7.34375 1.84375 -7.34375 C 1.84375 -7.34375 2.90625 -7.34375 2.90625 -7.34375 C 2.90625 -7.34375 2.734375 -6.421875 2.734375 -6.421875 C 3.625 -7.265625 4.265625 -7.546875 5.21875 -7.546875 C 6.140625 -7.546875 6.6875 -7.171875 6.921875 -6.390625 C 7.734375 -7.1875 8.546875 -7.546875 9.453125 -7.546875 C 10.6875 -7.546875 11.234375 -6.71875 11.234375 -5.984375 C 11.234375 -5.84375 11.1875 -5.375 11.140625 -5.21875 C 11.140625 -5.21875 10.03125 0 10.03125 0 Z M 10.03125 0 "/>
</g>
<g id="glyph-3-10-a40c0beb">
<path d="M 7.203125 -3.328125 C 7.203125 -3.328125 1.796875 -3.328125 1.796875 -3.328125 C 1.71875 -3.0625 1.703125 -2.921875 1.71875 -2.6875 C 1.71875 -1.5 2.359375 -0.875 3.46875 -0.875 C 4.40625 -0.875 5.15625 -1.375 5.625 -2.21875 C 5.625 -2.21875 6.796875 -2.21875 6.796875 -2.21875 C 6.375 -0.71875 4.953125 0.203125 3.28125 0.203125 C 1.5625 0.203125 0.484375 -1.015625 0.484375 -2.484375 C 0.484375 -3.609375 1 -5.15625 1.65625 -6.03125 C 2.359375 -6.96875 3.53125 -7.546875 4.75 -7.546875 C 6.265625 -7.546875 7.421875 -6.5 7.421875 -5.15625 C 7.421875 -4.78125 7.34375 -4.1875 7.21875 -3.515625 C 7.21875 -3.515625 7.203125 -3.328125 7.203125 -3.328125 Z M 6.15625 -4.34375 C 6.171875 -4.515625 6.1875 -4.609375 6.1875 -4.75 C 6.1875 -5.796875 5.5625 -6.46875 4.5625 -6.46875 C 3.4375 -6.46875 2.390625 -5.578125 2.046875 -4.34375 C 2.046875 -4.34375 6.15625 -4.34375 6.15625 -4.34375 Z M 6.15625 -4.34375 "/>
</g>
<g id="glyph-3-11-a40c0beb">
<path d="M 7.28125 -5.265625 C 7.28125 -5.265625 6.15625 0 6.15625 0 C 6.15625 0 4.984375 0 4.984375 0 C 4.984375 0 6.015625 -4.890625 6.015625 -4.890625 C 6.0625 -5.109375 6.109375 -5.3125 6.109375 -5.40625 C 6.109375 -6.046875 5.59375 -6.53125 4.890625 -6.53125 C 3.625 -6.53125 2.625 -5.59375 2.3125 -4.046875 C 2.3125 -4.046875 1.453125 0 1.453125 0 C 1.453125 0 0.28125 0 0.28125 0 C 0.28125 0 1.828125 -7.34375 1.828125 -7.34375 C 1.828125 -7.34375 2.890625 -7.34375 2.890625 -7.34375 C 2.890625 -7.34375 2.71875 -6.421875 2.71875 -6.421875 C 3.4375 -7.171875 4.375 -7.546875 5.4375 -7.546875 C 6.59375 -7.546875 7.34375 -6.859375 7.34375 -5.796875 C 7.34375 -5.609375 7.328125 -5.453125 7.28125 -5.265625 Z M 7.28125 -5.265625 "/>
</g>
<g id="glyph-3-12-a40c0beb">
<path d="M 6.546875 -2.515625 C 5.984375 -0.53125 4.8125 0.203125 3.015625 0.203125 C 1.390625 0.203125 0.375 -0.90625 0.375 -2.4375 C 0.375 -5.390625 2.078125 -7.546875 4.640625 -7.546875 C 6.125 -7.546875 7.0625 -6.546875 7.0625 -5.484375 C 7.0625 -5.453125 7.046875 -5.296875 7.03125 -5.078125 C 7.03125 -5.078125 7.015625 -4.875 7.015625 -4.875 C 7.015625 -4.875 5.84375 -4.875 5.84375 -4.875 C 5.859375 -5 5.859375 -5.09375 5.859375 -5.1875 C 5.859375 -5.984375 5.3125 -6.46875 4.421875 -6.46875 C 2.75 -6.46875 1.609375 -4.578125 1.609375 -2.59375 C 1.609375 -1.5 2.234375 -0.875 3.203125 -0.875 C 4.21875 -0.875 4.953125 -1.375 5.375 -2.515625 C 5.375 -2.515625 6.546875 -2.515625 6.546875 -2.515625 Z M 6.546875 -2.515625 "/>
</g>
<g id="glyph-3-13-a40c0beb">
<path d="M 10.5 -10.203125 C 10.5 -10.203125 8.984375 -3.109375 8.984375 -3.109375 C 8.546875 -1.0625 6.75 0.25 4.390625 0.25 C 2.375 0.25 1.046875 -0.796875 1.046875 -2.234375 C 1.046875 -2.453125 1.140625 -3.125 1.25 -3.578125 C 1.25 -3.578125 2.65625 -10.203125 2.65625 -10.203125 C 2.65625 -10.203125 3.96875 -10.203125 3.96875 -10.203125 C 3.96875 -10.203125 2.46875 -3.109375 2.46875 -3.109375 C 2.40625 -2.890625 2.390625 -2.6875 2.390625 -2.484375 C 2.390625 -1.53125 3.296875 -0.875 4.640625 -0.875 C 6.234375 -0.875 7.375 -1.71875 7.671875 -3.109375 C 7.671875 -3.109375 9.1875 -10.203125 9.1875 -10.203125 C 9.1875 -10.203125 10.5 -10.203125 10.5 -10.203125 Z M 10.5 -10.203125 "/>
</g>
<g id="glyph-3-14-a40c0beb">
<path d="M 6.234375 -2.53125 C 6.234375 -0.875 4.875 0.203125 2.78125 0.203125 C 1.15625 0.203125 0.1875 -0.46875 0.1875 -1.578125 C 0.1875 -1.8125 0.203125 -1.96875 0.265625 -2.296875 C 0.265625 -2.296875 1.515625 -2.296875 1.515625 -2.296875 C 1.5 -2.15625 1.484375 -2.03125 1.484375 -1.953125 C 1.484375 -1.25 2.03125 -0.875 3 -0.875 C 4.078125 -0.875 5 -1.40625 5 -2.21875 C 5 -2.5 4.90625 -2.8125 4.015625 -3.03125 C 4.015625 -3.03125 2.984375 -3.296875 2.984375 -3.296875 C 1.546875 -3.671875 1.046875 -4.09375 1.046875 -4.9375 C 1.046875 -6.421875 2.34375 -7.546875 4.28125 -7.546875 C 5.640625 -7.546875 6.578125 -6.875 6.578125 -5.890625 C 6.578125 -5.71875 6.5625 -5.59375 6.5 -5.296875 C 6.5 -5.296875 5.3125 -5.296875 5.3125 -5.296875 C 5.328125 -5.40625 5.328125 -5.5 5.328125 -5.59375 C 5.328125 -6.140625 4.875 -6.46875 4.046875 -6.46875 C 2.984375 -6.46875 2.28125 -5.96875 2.28125 -5.25 C 2.28125 -4.890625 2.6875 -4.609375 3.46875 -4.40625 C 3.46875 -4.40625 4.53125 -4.140625 4.53125 -4.140625 C 5.765625 -3.84375 6.234375 -3.390625 6.234375 -2.53125 Z M 6.234375 -2.53125 "/>
</g>
<g id="glyph-3-15-a40c0beb">
<path d="M 3.078125 -1.015625 C 3.078125 -1.015625 2.859375 0 2.859375 0 C 2.65625 0.0625 2.21875 0.09375 1.953125 0.09375 C 1.171875 0.09375 0.703125 -0.328125 0.703125 -1.015625 C 0.703125 -1.140625 0.71875 -1.296875 0.734375 -1.4375 C 0.734375 -1.4375 1.8125 -6.390625 1.8125 -6.390625 C 1.8125 -6.390625 0.8125 -6.390625 0.8125 -6.390625 C 0.8125 -6.390625 1.015625 -7.34375 1.015625 -7.34375 C 1.015625 -7.34375 2 -7.34375 2 -7.34375 C 2 -7.34375 2.4375 -9.359375 2.4375 -9.359375 C 2.4375 -9.359375 3.609375 -9.359375 3.609375 -9.359375 C 3.609375 -9.359375 3.171875 -7.34375 3.171875 -7.34375 C 3.171875 -7.34375 4.421875 -7.34375 4.421875 -7.34375 C 4.421875 -7.34375 4.234375 -6.390625 4.234375 -6.390625 C 4.234375 -6.390625 2.984375 -6.390625 2.984375 -6.390625 C 2.984375 -6.390625 1.9375 -1.484375 1.9375 -1.484375 C 1.921875 -1.40625 1.90625 -1.328125 1.90625 -1.28125 C 1.90625 -1.0625 2.09375 -0.90625 2.40625 -0.90625 C 2.578125 -0.90625 2.640625 -0.921875 3.078125 -1.015625 Z M 3.078125 -1.015625 "/>
</g>
</g>
</defs>
<rect x="-67.2" y="-48" width="806.4" height="576" fill="rgb(100%, 100%, 100%)" fill-opacity="1"/>
<path fill-rule="nonzero" fill="rgb(100%, 100%, 100%)" fill-opacity="1" d="M 33 441 L 656 441 L 656 16 L 33 16 Z M 33 441 "/>
<path fill="none" stroke-width="1" stroke-linecap="butt" stroke-linejoin="miter" stroke="rgb(0%, 0%, 0%)" stroke-opacity="0.12" stroke-miterlimit="1.154701" d="M 124.246094 441 L 124.246094 16 "/>
<path fill="none" stroke-width="1" stroke-linecap="butt" stroke-linejoin="miter" stroke="rgb(0%, 0%, 0%)" stroke-opacity="0.12" stroke-miterlimit="1.154701" d="M 250.105469 441 L 250.105469 16 "/>
<path fill="none" stroke-width="1" stroke-linecap="butt" stroke-linejoin="miter" stroke="rgb(0%, 0%, 0%)" stroke-opacity="0.12" stroke-miterlimit="1.154701" d="M 375.964844 441 L 375.964844 16 "/>
<path fill="none" stroke-width="1" stroke-linecap="butt" stroke-linejoin="miter" stroke="rgb(0%, 0%, 0%)" stroke-opacity="0.12" stroke-miterlimit="1.154701" d="M 501.824219 441 L 501.824219 16 "/>
<path fill="none" stroke-width="1" stroke-linecap="butt" stroke-linejoin="miter" stroke="rgb(0%, 0%, 0%)" stroke-opacity="0.12" stroke-miterlimit="1.154701" d="M 627.683594 441 L 627.683594 16 "/>
<path fill="none" stroke-width="1" stroke-linecap="butt" stroke-linejoin="miter" stroke="rgb(0%, 0%, 0%)" stroke-opacity="0.12" stroke-miterlimit="1.154701" d="M 33 357.289062 L 656 357.289062 "/>
<path fill="none" stroke-width="1" stroke-linecap="butt" stroke-linejoin="miter" stroke="rgb(0%, 0%, 0%)" stroke-opacity="0.12" stroke-miterlimit="1.154701" d="M 33 271.429688 L 656 271.429688 "/>
<path fill="none" stroke-width="1" stroke-linecap="butt" stroke-linejoin="miter" stroke="rgb(0%, 0%, 0%)" stroke-opacity="0.12" stroke-miterlimit="1.154701" d="M 33 185.570312 L 656 185.570312 "/>
<path fill="none" stroke-width="1" stroke-linecap="butt" stroke-linejoin="miter" stroke="rgb(0%, 0%, 0%)" stroke-opacity="0.12" stroke-miterlimit="1.154701" d="M 33 99.710938 L 656 99.710938 "/>
<g fill="rgb(0%, 0%, 0%)" fill-opacity="1">
<use xlink:href="#glyph-0-0-a40c0beb" x="120.355477" y="462.257999"/>
</g>
<g fill="rgb(0%, 0%, 0%)" fill-opacity="1">
<use xlink:href="#glyph-0-1-a40c0beb" x="246.214068" y="462.257999"/>
</g>
<g fill="rgb(0%, 0%, 0%)" fill-opacity="1">
<use xlink:href="#glyph-0-2-a40c0beb" x="372.072668" y="462.257999"/>
</g>
<g fill="rgb(0%, 0%, 0%)" fill-opacity="1">
<use xlink:href="#glyph-0-3-a40c0beb" x="497.931252" y="462.257999"/>
</g>
<g fill="rgb(0%, 0%, 0%)" fill-opacity="1">
<use xlink:href="#glyph-0-4-a40c0beb" x="623.789835" y="462.257999"/>
</g>
<g fill="rgb(0%, 0%, 0%)" fill-opacity="1">
<use xlink:href="#glyph-1-0-a40c0beb" x="15.216" y="362.390874"/>
</g>
<g fill="rgb(0%, 0%, 0%)" fill-opacity="1">
<use xlink:href="#glyph-1-1-a40c0beb" x="15.216" y="276.53228"/>
</g>
<g fill="rgb(0%, 0%, 0%)" fill-opacity="1">
<use xlink:href="#glyph-1-2-a40c0beb" x="15.216" y="190.673694"/>
</g>
<g fill="rgb(0%, 0%, 0%)" fill-opacity="1">
<use xlink:href="#glyph-1-3-a40c0beb" x="15.216" y="104.815108"/>
</g>
<path fill="none" stroke-width="1" stroke-linecap="butt" stroke-linejoin="miter" stroke="rgb(0%, 0%, 0%)" stroke-opacity="1" stroke-miterlimit="1.154701" d="M 124.246094 357.289062 L 250.105469 357.289062 "/>
<path fill="none" stroke-width="1" stroke-linecap="butt" stroke-linejoin="miter" stroke="rgb(0%, 0%, 0%)" stroke-opacity="1" stroke-miterlimit="1.154701" d="M 250.105469 271.429688 L 375.964844 271.429688 "/>
<path fill="none" stroke-width="1" stroke-linecap="butt" stroke-linejoin="miter" stroke="rgb(0%, 0%, 0%)" stroke-opacity="1" stroke-miterlimit="1.154701" d="M 313.035156 185.570312 L 375.964844 185.570312 "/>
<path fill="none" stroke-width="1" stroke-linecap="butt" stroke-linejoin="miter" stroke="rgb(0%, 0%, 0%)" stroke-opacity="1" stroke-miterlimit="1.154701" d="M 313.035156 99.710938 L 375.964844 99.710938 "/>
<path fill="none" stroke-width="1" stroke-linecap="butt" stroke-linejoin="miter" stroke="rgb(0%, 0%, 0%)" stroke-opacity="1" stroke-miterlimit="1.154701" d="M 250.105469 142.640625 L 313.035156 142.640625 "/>
<path fill="none" stroke-width="1" stroke-linecap="butt" stroke-linejoin="miter" stroke="rgb(0%, 0%, 0%)" stroke-opacity="1" stroke-miterlimit="1.154701" d="M 124.246094 207.035156 L 250.105469 207.035156 "/>
<path fill="none" stroke-width="1" stroke-linecap="butt" stroke-linejoin="miter" stroke="rgb(0%, 0%, 0%)" stroke-opacity="1" stroke-miterlimit="1.154701" d="M 250.105469 357.289062 L 250.105469 357.289062 "/>
<path fill="none" stroke-width="1" stroke-linecap="butt" stroke-linejoin="miter" stroke="rgb(0%, 0%, 0%)" stroke-opacity="1" stroke-miterlimit="1.154701" d="M 375.964844 271.429688 L 375.964844 271.429688 "/>
<path fill="none" stroke-width="1" stroke-linecap="butt" stroke-linejoin="miter" stroke="rgb(0%, 0%, 0%)" stroke-opacity="1" stroke-miterlimit="1.154701" d="M 375.964844 185.570312 L 375.964844 185.570312 "/>
<path fill="none" stroke-width="1" stroke-linecap="butt" stroke-linejoin="miter" stroke="rgb(0%, 0%, 0%)" stroke-opacity="1" stroke-miterlimit="1.154701" d="M 375.964844 99.710938 L 375.964844 99.710938 "/>
<path fill="none" stroke-width="1" stroke-linecap="butt" stroke-linejoin="miter" stroke="rgb(0%, 0%, 0%)" stroke-opacity="1" stroke-miterlimit="1.154701" d="M 313.035156 185.570312 L 313.035156 99.710938 "/>
<path fill="none" stroke-width="1" stroke-linecap="butt" stroke-linejoin="miter" stroke="rgb(0%, 0%, 0%)" stroke-opacity="1" stroke-miterlimit="1.154701" d="M 250.105469 271.429688 L 250.105469 142.640625 "/>
<path fill="none" stroke-width="1" stroke-linecap="butt" stroke-linejoin="miter" stroke="rgb(0%, 0%, 0%)" stroke-opacity="1" stroke-miterlimit="1.154701" d="M 124.246094 357.289062 L 124.246094 207.035156 "/>
<g fill="rgb(0%, 0%, 0%)" fill-opacity="1">
<use xlink:href="#glyph-2-0-a40c0beb" x="275.277776" y="362.390894"/>
</g>
<g fill="rgb(0%, 0%, 0%)" fill-opacity="1">
<use xlink:href="#glyph-3-0-a40c0beb" x="284.615777" y="362.390894"/>
<use xlink:href="#glyph-3-1-a40c0beb" x="287.723776" y="362.390894"/>
<use xlink:href="#glyph-3-2-a40c0beb" x="290.831776" y="362.390894"/>
<use xlink:href="#glyph-3-3-a40c0beb" x="298.615776" y="362.390894"/>
<use xlink:href="#glyph-3-4-a40c0beb" x="303.277776" y="362.390894"/>
<use xlink:href="#glyph-3-5-a40c0beb" x="311.061777" y="362.390894"/>
<use xlink:href="#glyph-3-4-a40c0beb" x="318.845777" y="362.390894"/>
<use xlink:href="#glyph-3-6-a40c0beb" x="326.629777" y="362.390894"/>
<use xlink:href="#glyph-3-7-a40c0beb" x="334.413778" y="362.390894"/>
<use xlink:href="#glyph-3-8-a40c0beb" x="342.197774" y="362.390894"/>
<use xlink:href="#glyph-3-9-a40c0beb" x="349.981771" y="362.390894"/>
<use xlink:href="#glyph-3-10-a40c0beb" x="361.643774" y="362.390894"/>
<use xlink:href="#glyph-3-1-a40c0beb" x="369.42777" y="362.390894"/>
<use xlink:href="#glyph-3-7-a40c0beb" x="372.535772" y="362.390894"/>
<use xlink:href="#glyph-3-11-a40c0beb" x="380.319768" y="362.390894"/>
<use xlink:href="#glyph-3-4-a40c0beb" x="388.103765" y="362.390894"/>
<use xlink:href="#glyph-3-1-a40c0beb" x="395.887762" y="362.390894"/>
<use xlink:href="#glyph-3-10-a40c0beb" x="398.995763" y="362.390894"/>
<use xlink:href="#glyph-3-2-a40c0beb" x="406.77976" y="362.390894"/>
<use xlink:href="#glyph-3-12-a40c0beb" x="414.563756" y="362.390894"/>
<use xlink:href="#glyph-3-7-a40c0beb" x="421.563756" y="362.390894"/>
</g>
<g fill="rgb(0%, 0%, 0%)" fill-opacity="1">
<use xlink:href="#glyph-3-13-a40c0beb" x="401.136365" y="276.532308"/>
<use xlink:href="#glyph-3-3-a40c0beb" x="411.244365" y="276.532308"/>
<use xlink:href="#glyph-3-14-a40c0beb" x="415.906366" y="276.532308"/>
<use xlink:href="#glyph-3-2-a40c0beb" x="422.906366" y="276.532308"/>
<use xlink:href="#glyph-3-14-a40c0beb" x="430.690366" y="276.532308"/>
<use xlink:href="#glyph-3-8-a40c0beb" x="437.690366" y="276.532308"/>
<use xlink:href="#glyph-3-7-a40c0beb" x="445.474367" y="276.532308"/>
<use xlink:href="#glyph-3-9-a40c0beb" x="453.258367" y="276.532308"/>
<use xlink:href="#glyph-3-10-a40c0beb" x="464.920366" y="276.532308"/>
<use xlink:href="#glyph-3-3-a40c0beb" x="472.704366" y="276.532308"/>
<use xlink:href="#glyph-3-0-a40c0beb" x="477.366369" y="276.532308"/>
<use xlink:href="#glyph-3-12-a40c0beb" x="480.47437" y="276.532308"/>
<use xlink:href="#glyph-3-7-a40c0beb" x="487.47437" y="276.532308"/>
<use xlink:href="#glyph-3-11-a40c0beb" x="495.258367" y="276.532308"/>
<use xlink:href="#glyph-3-2-a40c0beb" x="503.042364" y="276.532308"/>
<use xlink:href="#glyph-3-14-a40c0beb" x="510.82636" y="276.532308"/>
</g>
<g fill="rgb(0%, 0%, 0%)" fill-opacity="1">
<use xlink:href="#glyph-3-13-a40c0beb" x="401.136365" y="190.673722"/>
<use xlink:href="#glyph-3-3-a40c0beb" x="411.244365" y="190.673722"/>
<use xlink:href="#glyph-3-14-a40c0beb" x="415.906366" y="190.673722"/>
<use xlink:href="#glyph-3-2-a40c0beb" x="422.906366" y="190.673722"/>
<use xlink:href="#glyph-3-14-a40c0beb" x="430.690366" y="190.673722"/>
<use xlink:href="#glyph-3-8-a40c0beb" x="437.690366" y="190.673722"/>
<use xlink:href="#glyph-3-7-a40c0beb" x="445.474367" y="190.673722"/>
<use xlink:href="#glyph-3-3-a40c0beb" x="453.258367" y="190.673722"/>
<use xlink:href="#glyph-3-12-a40c0beb" x="457.920366" y="190.673722"/>
<use xlink:href="#glyph-3-15-a40c0beb" x="464.920366" y="190.673722"/>
<use xlink:href="#glyph-3-4-a40c0beb" x="468.812368" y="190.673722"/>
<use xlink:href="#glyph-3-14-a40c0beb" x="476.596364" y="190.673722"/>
</g>
<g fill="rgb(0%, 0%, 0%)" fill-opacity="1">
<use xlink:href="#glyph-3-13-a40c0beb" x="401.136365" y="104.815136"/>
<use xlink:href="#glyph-3-3-a40c0beb" x="411.244365" y="104.815136"/>
<use xlink:href="#glyph-3-14-a40c0beb" x="415.906366" y="104.815136"/>
<use xlink:href="#glyph-3-2-a40c0beb" x="422.906366" y="104.815136"/>
<use xlink:href="#glyph-3-14-a40c0beb" x="430.690366" y="104.815136"/>
<use xlink:href="#glyph-3-8-a40c0beb" x="437.690366" y="104.815136"/>
<use xlink:href="#glyph-3-9-a40c0beb" x="445.474367" y="104.815136"/>
<use xlink:href="#glyph-3-7-a40c0beb" x="457.136365" y="104.815136"/>
<use xlink:href="#glyph-3-3-a40c0beb" x="464.920366" y="104.815136"/>
<use xlink:href="#glyph-3-0-a40c0beb" x="469.582365" y="104.815136"/>
<use xlink:href="#glyph-3-15-a40c0beb" x="472.690366" y="104.815136"/>
<use xlink:href="#glyph-3-0-a40c0beb" x="476.582365" y="104.815136"/>
<use xlink:href="#glyph-3-9-a40c0beb" x="479.690366" y="104.815136"/>
<use xlink:href="#glyph-3-2-a40c0beb" x="491.352369" y="104.815136"/>
<use xlink:href="#glyph-3-14-a40c0beb" x="499.136365" y="104.815136"/>
</g>
<path fill="none" stroke-width="1" stroke-linecap="butt" stroke-linejoin="miter" stroke="rgb(0%, 0%, 0%)" stroke-opacity="1" stroke-miterlimit="1.154701" d="M 124.246094 441.5 L 124.246094 446.5 "/>
<path fill="none" stroke-width="1" stroke-linecap="butt" stroke-linejoin="miter" stroke="rgb(0%, 0%, 0%)" stroke-opacity="1" stroke-miterlimit="1.154701" d="M 250.105469 441.5 L 250.105469 446.5 "/>
<path fill="none" stroke-width="1" stroke-linecap="butt" stroke-linejoin="miter" stroke="rgb(0%, 0%, 0%)" stroke-opacity="1" stroke-miterlimit="1.154701" d="M 375.964844 441.5 L 375.964844 446.5 "/>
<path fill="none" stroke-width="1" stroke-linecap="butt" stroke-linejoin="miter" stroke="rgb(0%, 0%, 0%)" stroke-opacity="1" stroke-miterlimit="1.154701" d="M 501.824219 441.5 L 501.824219 446.5 "/>
<path fill="none" stroke-width="1" stroke-linecap="butt" stroke-linejoin="miter" stroke="rgb(0%, 0%, 0%)" stroke-opacity="1" stroke-miterlimit="1.154701" d="M 627.683594 441.5 L 627.683594 446.5 "/>
<path fill="none" stroke-width="1" stroke-linecap="butt" stroke-linejoin="miter" stroke="rgb(0%, 0%, 0%)" stroke-opacity="1" stroke-miterlimit="1.154701" d="M 32.5 357.289062 L 27.5 357.289062 "/>
<path fill="none" stroke-width="1" stroke-linecap="butt" stroke-linejoin="miter" stroke="rgb(0%, 0%, 0%)" stroke-opacity="1" stroke-miterlimit="1.154701" d="M 32.5 271.429688 L 27.5 271.429688 "/>
<path fill="none" stroke-width="1" stroke-linecap="butt" stroke-linejoin="miter" stroke="rgb(0%, 0%, 0%)" stroke-opacity="1" stroke-miterlimit="1.154701" d="M 32.5 185.570312 L 27.5 185.570312 "/>
<path fill="none" stroke-width="1" stroke-linecap="butt" stroke-linejoin="miter" stroke="rgb(0%, 0%, 0%)" stroke-opacity="1" stroke-miterlimit="1.154701" d="M 32.5 99.710938 L 27.5 99.710938 "/>
<path fill="none" stroke-width="1" stroke-linecap="butt" stroke-linejoin="miter" stroke="rgb(0%, 0%, 0%)" stroke-opacity="1" stroke-miterlimit="1.154701" d="M 32.5 441 L 656.5 441 "/>
<path fill="none" stroke-width="1" stroke-linecap="butt" stroke-linejoin="miter" stroke="rgb(0%, 0%, 0%)" stroke-opacity="1" stroke-miterlimit="1.154701" d="M 33 441.5 L 33 15.5 "/>
<path fill="none" stroke-width="1" stroke-linecap="butt" stroke-linejoin="miter" stroke="rgb(0%, 0%, 0%)" stroke-opacity="1" stroke-miterlimit="1.154701" d="M 32.5 16 L 656.5 16 "/>
<path fill="none" stroke-width="1" stroke-linecap="butt" stroke-linejoin="miter" stroke="rgb(0%, 0%, 0%)" stroke-opacity="1" stroke-miterlimit="1.154701" d="M 656 441.5 L 656 15.5 "/>
</svg>
